<?xml version="1.0" encoding="UTF-8" standalone="no"?>
<!-- Created with Inkscape (http://www.inkscape.org/) -->

<svg
   xmlns:svg="http://www.w3.org/2000/svg"
   xmlns="http://www.w3.org/2000/svg"
   version="1.1"
   width="945"
   height="190"
   id="svg2"
   xml:space="preserve"><defs
     id="defs6"><clipPath
       id="clipPath20"><path
         d="m 0,0 755.999,0 0,151.998 L 0,151.998 0,0 z"
         id="path22" /></clipPath></defs><path
     d="m 149.55147,109.73878 -0.005,-106.0838319 c -85.222562,-8.217506 -149.54635888848,0 -149.54635888848,0 0,0 -0.001250002,106.0763319 0,106.1013319 C 6.7913661,181.66757 74.143916,190.11508 74.782666,189.99883 86.812675,187.83008 143.28022,176.47507 149.55147,109.73878 z"
     id="path2883"
     style="fill:#880a22;fill-opacity:1;fill-rule:nonzero;stroke:none" /><path
     d="m 189.1565,135.43754 c 0,19.64376 9.44251,33.50252 21.62627,41.88253 11.1175,7.46 24.21501,10.2025 37.92127,10.2025 9.74876,0 20.71252,-2.285 24.06377,-3.505 1.675,-0.60625 3.50375,-1.21625 5.33001,-1.5225 2.285,-2.8925 6.245,-12.94376 7.31,-20.86501 -0.61,-1.06501 -2.89375,-1.36876 -3.95875,-0.61 -3.50375,8.9875 -12.18501,21.78126 -31.83003,21.78126 -24.97751,0 -45.23378,-17.66876 -45.23378,-49.65003 0,-31.52502 19.80002,-46.298781 43.10003,-46.298781 22.08252,0 28.93877,11.877509 31.22253,22.237521 1.065,0.91 3.35125,0.75875 4.11,-0.30625 -1.2175,-9.288762 -1.97875,-18.883769 -2.13125,-22.387522 -1.37,0.151251 -2.435,-0.15375 -4.26251,-0.60875 -7.16,-1.980001 -18.73376,-3.655003 -26.95877,-3.655003 -15.83751,0 -30.00127,4.263753 -41.12003,12.94251 -11.575,8.986255 -19.18876,23.456265 -19.18876,40.362525 z"
     id="path2881"
     style="fill:#880a22;fill-opacity:1;fill-rule:nonzero;stroke:none" /><path
     d="m 232.38153,3.5311981 0.0488,-0.18 -0.085,-0.1675 c -0.24375,-0.480001 -0.95125,-0.518751 -1.1625,-0.518751 -0.15875,0 -0.39125,0.01875 -0.59625,0.1 l -0.1575,0.06375 -0.085,0.145 c -0.81625,1.415001 -1.155,1.530002 -4.52625,1.530002 l -26.23377,0 c -2.84125,0 -4.11501,-0.148751 -4.38251,-1.568752 l -0.0275,-0.14875 -0.1075,-0.10625 c -0.17625,-0.17625 -0.4625,-0.26125 -0.875,-0.26125 -0.1525,0 -0.6675,0.01375 -0.94625,0.20125 l -0.1725,0.11625 -0.035,0.205 c -0.445,2.526252 -1.38375,6.537505 -2.39125,9.3775069 l -0.07,0.19625 0.0925,0.185 c 0.38125,0.765001 1.68375,1.135001 2.37875,0.613751 l 0.1025,-0.07625 0.0513,-0.1175 c 0.64375,-1.465001 1.2525,-2.848752 2.73751,-4.2162529 1.3975,-1.283751 4.565,-1.457501 7.47875,-1.457501 l 3.4875,0 c 1.41875,0 1.41875,0 1.41875,1.541251 l 0,28.3712709 c 0,6.875005 -0.39625,7.175005 -3.48875,7.446255 l -2.28375,0.19 -0.215,0.07 c -0.37875,0.2325 -0.58875,0.705001 -0.565,1.266251 0.0187,0.4275 0.18625,0.960001 0.60125,1.167501 l 0.11,0.05625 0.12375,-0.005 c 3.88625,-0.1175 6.2325,-0.18875 8.80376,-0.18875 2.47875,0 4.5275,0.06 8.3,0.18875 l 0.12375,0.005 0.11125,-0.05625 c 0.415,-0.2075 0.5925,-0.773751 0.62,-1.232501 0.0337,-0.54875 -0.12875,-0.983751 -0.445,-1.192501 l -2.25625,-0.26875 c -3.175,-0.27375 -3.3625,-0.691251 -3.3625,-7.446255 l 0,-28.4387709 c -0.001,-0.648751 -0.001,-1.261251 0.1025,-1.366251 0.1075,-0.1075 0.79625,-0.1075 1.25125,-0.1075 l 4.50375,0 c 3.40001,0 5.71251,0.4875 7.07251,1.492501 0.6025,0.44 1.1225,2.0475009 1.3925,4.2975029 l 0.0163,0.1425 0.0925,0.11 c 0.2325,0.2825 0.6625,0.45125 1.15,0.45125 0.6025,0 1.105,-0.25875 1.31,-0.675 l 0.0625,-0.12375 -0.015,-0.14 c -0.18,-1.827502 0.26,-6.9387549 0.94125,-9.4700069 z"
     id="path2879"
     style="fill:#880a22;fill-opacity:1;fill-rule:nonzero;stroke:none" /><path
     d="m 284.55907,37.358723 0,-22.845017 c 0,-6.7600049 0.18875,-7.1812549 3.365,-7.5125059 l 1.32875,-0.12625 0.22375,-0.07875 c 0.31625,-0.21 0.48,-0.6475 0.44625,-1.200001 -0.015,-0.22375 -0.10125,-0.97125 -0.6225,-1.230001 l -0.1125,-0.05625 -0.125,0.0063 c -3.06875,0.135001 -5.1625,0.187501 -7.47125,0.187501 -2.74875,0 -4.96626,-0.0725 -7.65376,-0.187501 l -0.12375,-0.0063 -0.1125,0.055 c -0.52125,0.257501 -0.61,1.001251 -0.625,1.223751 -0.0362,0.555001 0.12375,0.993751 0.44125,1.206251 l 1.4275,0.205 c 3.24001,0.333751 3.43251,0.755001 3.43251,7.5137559 l 0,7.295005 c 0,1.543751 0,1.543751 -2.68376,1.543751 l -18.15001,0 c -2.685,0 -2.685,0 -2.685,-1.543751 l 0,-7.295005 c 0,-6.7600049 0.18875,-7.1800049 3.37125,-7.5137559 l 1.20375,-0.125 0.22,-0.08 c 0.3175,-0.21125 0.47875,-0.65 0.44375,-1.205001 -0.015,-0.2225 -0.10375,-0.9675 -0.62625,-1.225001 l -0.1125,-0.055 -0.125,0.0063 c -2.88875,0.133751 -5.015,0.187501 -7.33875,0.187501 -1.6575,0 -3.10251,-0.0475 -4.68001,-0.0975 -1.01625,-0.03125 -2.0875,-0.06625 -3.30375,-0.09125 l -0.11875,-0.0025 -0.105,0.0525 c -0.5225,0.256251 -0.6125,0.997501 -0.62625,1.218751 -0.0388,0.556251 0.12125,0.997501 0.43875,1.211251 l 0.1075,0.07125 1.7775,0.13625 c 2.79625,0.213751 3.29375,0.790001 3.29375,7.5112559 l 0,22.845017 c 0,6.606254 -0.12125,6.885005 -3.27625,7.452505 l -1.22875,0.215 -0.10875,0.10875 c -0.36375,0.36125 -0.41875,0.952501 -0.34875,1.387501 0.0762,0.468751 0.29375,0.825001 0.6,0.976251 l 0.1075,0.05375 0.12125,-0.0025 c 0.8725,-0.02 1.70625,-0.05 2.53875,-0.08 1.5,-0.05375 3.05125,-0.10875 4.81126,-0.10875 2.38375,0 4.40875,0.05875 8.045,0.18875 l 0.12375,0.005 0.1125,-0.05625 c 0.415,-0.2075 0.5925,-0.773751 0.62,-1.233751 0.0325,-0.54875 -0.13125,-0.983751 -0.4475,-1.191251 l -2.05625,-0.267551 c -3.045,-0.32875 -3.43375,-0.63375 -3.43375,-7.447505 l 0,-8.951257 c 0,-1.540001 0,-1.540001 2.685,-1.540001 l 18.15001,0 c 2.68376,0 2.68376,0 2.68376,1.540001 l 0,8.951257 c 0,6.751254 -0.065,6.890005 -3.45876,7.450005 l -1.3625,0.21375 -0.1125,0.1125 c -0.3625,0.36375 -0.41625,0.957501 -0.345,1.391251 0.0775,0.467501 0.29625,0.822501 0.60125,0.973751 l 0.1125,0.05625 0.12625,-0.0063 c 3.0375,-0.13375 5.25501,-0.18875 7.65251,-0.18875 2.50125,0 4.70375,0.06875 7.66,0.18875 l 0.12375,0.005 0.11125,-0.055 c 0.525,-0.2575 0.6125,-1.002501 0.62625,-1.223751 0.0362,-0.5525 -0.125,-0.991251 -0.4425,-1.201251 l -1.7325,-0.2675 c -3.22125,-0.39 -3.37875,-0.738751 -3.37875,-7.448755 z"
     id="path2877"
     style="fill:#880a22;fill-opacity:1;fill-rule:nonzero;stroke:none" /><path
     d="m 337.59661,38.339973 0.0312,-0.1525 -0.065,-0.1425 c -0.27375,-0.61125 -0.9475,-0.883751 -1.49375,-0.883751 -0.31375,0 -0.59625,0.08375 -0.81875,0.242501 l -0.15375,0.18 c -1.82,3.633752 -3.45751,5.473754 -4.28751,5.935004 -1.36625,0.681251 -3.28625,0.901251 -7.90625,0.901251 -5.28626,0 -6.64876,-0.632501 -7.32126,-1.305001 -0.89875,-0.957501 -1.075,-3.022502 -1.075,-6.266255 l 0,-8.946257 c 0,-1.22875 0,-1.22875 1.6075,-1.22875 l 3.68251,0 c 2.215,0 3.87125,0.05125 4.765,0.30375 0.88375,0.22 1.335,0.79375 1.6125,2.050001 l 0.57,2.470002 0.0987,0.20125 c 0.2375,0.287501 0.68125,0.460001 1.18875,0.460001 0.58,0 1.05125,-0.22 1.26125,-0.586251 l 0.065,-0.11125 0,-0.13125 c 0,-0.62 -0.0487,-1.438751 -0.105,-2.357502 -0.07,-1.156251 -0.14875,-2.467502 -0.14875,-3.737502 0,-1.327501 0.0787,-2.686252 0.1475,-3.883753 0.0562,-0.970001 0.10625,-1.841252 0.10625,-2.523752 l 0,-0.12875 -0.0637,-0.1125 c -0.21,-0.370001 -0.6825,-0.590001 -1.265,-0.590001 -0.505,0 -0.94875,0.17125 -1.18625,0.458751 l -0.61125,2.817502 c -0.2875,1.450001 -0.64375,1.666251 -1.19875,1.850001 -0.67625,0.2275 -2.585,0.3575 -5.23625,0.3575 l -3.68251,0 c -1.6075,0 -1.6075,0 -1.6075,-1.291251 l 0,-12.6912589 c 0,-2.051251 0,-2.051251 1.41625,-2.051251 l 4.57126,0 c 2.69375,0 4.7525,0.0625 6.0375,0.36875 2.89375,0.723751 3.475,2.5537519 4.355,5.3237539 l 0.1225,0.38 0.0875,0.16125 c 0.21625,0.2625 0.5825,0.4075 1.03126,0.4075 0.43875,0 1.05,-0.15 1.3325,-0.57 l 0.0962,-0.14375 -0.0837,-0.937501 c -0.33,-3.6950019 -0.63125,-6.8325049 -0.9725,-7.7962549 l -0.14625,-0.416251 -0.43,0.105 c -0.70376,0.175001 -4.64126,0.175001 -8.45001,0.175001 l -11.93001,0 c -2.44375,0 -4.53625,-0.0525 -7.46251,-0.187501 l -0.125,-0.0063 -0.1125,0.055 c -0.52125,0.256251 -0.61125,1.000001 -0.625,1.221251 -0.0375,0.556251 0.1225,0.996251 0.43875,1.208751 l 1.23126,0.205 c 3.24875,0.383751 3.44125,0.806251 3.44125,7.5137559 l 0,22.845017 c 0,6.875005 -0.395,7.175005 -3.4925,7.446255 l -2.26751,0.205 -0.12375,0.125 c -0.36375,0.36125 -0.4175,0.952501 -0.34875,1.386251 0.0763,0.470001 0.295,0.826251 0.6,0.977501 l 0.11,0.05625 0.1225,-0.005 c 3.66751,-0.12 5.87626,-0.18875 8.61376,-0.18875 l 5.71375,0 c 5.53376,0 11.09376,0.06125 16.99627,0.18875 l 0.31375,0.0075 0.135,-0.28375 c 0.8525,-1.772502 2.4475,-6.697505 2.89375,-8.933757 z"
     id="path2875"
     style="fill:#880a22;fill-opacity:1;fill-rule:nonzero;stroke:none" /><path
     d="m 343.73911,87.92001 c 0.9125,-0.612501 0.6075,-3.352503 -0.305,-3.807503 -6.55,0.30375 -11.72751,0.455 -17.66626,0.455 -6.54875,0 -11.72751,-0.3025 -19.19126,-0.455 -0.91375,0.455 -1.2175,3.195002 -0.30375,3.807503 l 3.95875,0.30375 c 7.92125,0.60875 8.98751,3.200002 8.98751,19.19001 l 0,54.82629 c 0,15.99001 -0.30625,17.51501 -8.83501,19.03751 l -2.5875,0.45625 c -0.91375,0.9125 -0.60875,3.35125 0.3025,3.80875 5.94125,-0.15125 11.12001,-0.4575 17.66876,-0.4575 5.93875,0 11.11626,0.1525 19.34126,0.4575 0.91376,-0.4575 1.21751,-3.20125 0.305,-3.80875 l -4.41625,-0.45625 c -8.52875,-0.91375 -9.29126,-3.0475 -9.29126,-19.03751 l 0,-21.47627 c 0,-4.56625 0.30501,-4.87125 7.61626,-4.87125 l 43.55628,0 c 7.31001,0 7.61626,0.305 7.61626,4.87125 l 0,21.47627 c 0,15.99001 0,17.51501 -9.29251,19.03751 l -2.8925,0.45625 c -0.91375,0.9125 -0.60875,3.35125 0.30375,3.80875 6.70125,-0.305 12.18626,-0.4575 18.42751,-0.4575 5.94126,0 11.11876,0.1525 18.42877,0.4575 0.91375,-0.4575 1.2175,-3.20125 0.30625,-3.80875 l -3.65751,-0.45625 c -8.83375,-1.0675 -9.13625,-3.0475 -9.13625,-19.03751 l 0,-54.82629 c 0,-15.990008 0.3025,-18.27751 9.13625,-19.19001 l 3.20001,-0.30375 c 0.91375,-0.612501 0.6075,-3.352503 -0.305,-3.807503 -6.85376,0.30375 -12.03126,0.455 -17.97252,0.455 -6.24125,0 -11.42251,-0.15125 -18.42751,-0.455 -0.9125,0.455 -1.2175,3.195002 -0.30375,3.807503 l 2.8925,0.30375 c 8.98626,0.9125 9.29251,3.200002 9.29251,19.19001 l 0,17.51377 c 0,4.7225 -0.30625,4.87375 -7.61626,4.87375 l -43.55628,0 c -7.31125,0 -7.61626,-0.15125 -7.61626,-4.87375 l 0,-17.51377 c 0,-15.990008 0.30501,-18.27751 9.13876,-19.19001 l 2.89375,-0.30375 z"
     id="path2873"
     style="fill:#880a22;fill-opacity:1;fill-rule:nonzero;stroke:none" /><path
     d="m 416.68917,6.6387001 c 0.28125,-0.34 0.41375,-0.863751 0.3375,-1.335001 -0.065,-0.39625 -0.27125,-0.72 -0.5825,-0.915001 l -0.13125,-0.08125 -0.15375,0.0087 c -2.205,0.121251 -3.91626,0.187501 -6.63626,0.187501 -2.43375,0 -4.79125,-0.06125 -7.2075,-0.187501 l -0.16125,-0.0087 -0.135,0.09125 c -0.29375,0.195001 -0.49625,0.556251 -0.55625,0.988751 -0.0663,0.475001 0.0525,0.932501 0.3275,1.256251 l 0.13125,0.155 1.78875,0.13625 c 1.45625,0.12 2.44625,0.508751 2.78625,1.091251 0.73875,1.302501 1.14625,5.8825039 1.14625,12.8925089 l 0,7.301256 c 0,7.477505 -2.1175,16.390012 -12.20501,16.390012 -8.45875,0 -12.39751,-5.228754 -12.39751,-16.456262 l 0,-13.70501 c 0,-6.7487549 0.22,-7.2400049 3.35876,-7.5137559 l 1.65,-0.13125 0.105,-0.07125 c 0.31625,-0.21125 0.47875,-0.63875 0.4425,-1.173751 -0.0288,-0.4425 -0.20875,-0.98875 -0.62375,-1.193751 l -0.11125,-0.05375 -0.12375,0.005 c -3.00876,0.121251 -5.14126,0.187501 -7.78501,0.187501 -2.60625,0 -4.85125,-0.06875 -7.84751,-0.187501 l -0.12375,-0.005 -0.11,0.05375 c -0.41625,0.203751 -0.59625,0.746251 -0.62625,1.187501 -0.0375,0.536251 0.1225,0.966251 0.43875,1.178751 l 0.1075,0.0725 1.71126,0.13125 c 3.14125,0.273751 3.36125,0.765001 3.36125,7.5137559 l 0,14.973761 c 0,7.673755 1.57875,12.410009 5.1175,15.350011 2.79625,2.391252 6.89626,3.603753 12.18626,3.603753 4.99875,0 9.78126,-1.836252 12.47626,-4.790004 3.07625,-3.295002 4.5725,-8.363756 4.5725,-15.495011 l 0,-7.172506 c 0,-3.216252 0,-10.751257 0.845,-12.7425089 0.295,-0.64 1.38125,-1.127501 2.76751,-1.241251 l 1.72875,-0.1375 0.13125,-0.15875 z"
     id="path2871"
     style="fill:#880a22;fill-opacity:1;fill-rule:nonzero;stroke:none" /><path
     d="m 473.57796,6.7324501 c 0.305,-0.30625 0.45875,-0.80375 0.40375,-1.297501 -0.0513,-0.4525 -0.27625,-0.8325 -0.61625,-1.045001 l -0.13125,-0.0825 -0.15625,0.0087 c -2.0825,0.121251 -3.735,0.187501 -6.50876,0.187501 -2.23875,0 -4.33125,-0.0525 -7.46625,-0.187501 l -0.0975,-0.005 -0.0925,0.035 c -0.36875,0.136251 -0.6275,0.482501 -0.7125,0.951251 -0.1025,0.567501 0.0675,1.141251 0.43625,1.461251 l 0.1125,0.0975 1.225,0.1425 c 2.17875,0.272501 3.28375,0.597501 3.5825,1.047501 0.75625,1.198751 1.19375,5.8900039 1.19375,12.8725089 l 0,13.58126 c 0,0.613751 0,1.325001 -0.0412,1.812502 -2.2,-2.273752 -4.5025,-4.851254 -7.36375,-8.053756 l -8.82626,-9.905008 C 442.24049,11.311154 438.64673,6.6936501 437.83423,4.6248991 l -0.1425,-0.362501 -0.385,0.05875 c -0.76125,0.115001 -1.79875,0.182501 -2.8475,0.182501 -1.11,0 -4.48625,0 -7.1325,-0.187501 l -0.135,-0.0087 -0.12001,0.06 c -0.335,0.170001 -0.57,0.518751 -0.64125,0.957501 -0.0875,0.528751 0.065,1.081251 0.38625,1.406251 l 0.12,0.1225 1.24501,0.145 c 1.6925,0.211251 2.95375,0.688751 3.63375,1.370001 1.185,1.296251 1.27,2.4662519 1.27,4.2375029 l 10e-4,18.916264 c 0.002,3.067502 0.0113,10.252508 -0.78375,12.297509 -0.1475,0.325 -0.68625,0.758751 -2.40125,0.986251 l -1.8825,0.2075 -0.12125,0.12125 c -0.2825,0.28125 -0.42625,0.732501 -0.3875,1.210001 0.04,0.4775 0.24875,0.883751 0.575,1.115001 l 0.13875,0.09875 0.17,-0.0087 c 2.2075,-0.1225 3.90875,-0.18875 6.57375,-0.18875 2.14875,0 4.295,0.055 7.40376,0.18875 l 0.16875,0.0075 0.135,-0.0975 c 0.2975,-0.2125 0.4975,-0.55 0.56125,-0.951251 0.0725,-0.465 -0.0462,-0.94625 -0.325,-1.320001 l -0.12875,-0.17375 -2.19251,-0.21 c -1.5225,-0.12375 -2.58625,-0.48125 -2.85125,-0.963751 -0.68375,-1.206251 -1.075,-5.905004 -1.075,-12.895009 l 0,-13.83376 c 0,-1.136251 0.0188,-2.345002 0.1325,-3.207503 1.00875,1.127501 2.6875,3.112502 4.19876,4.900004 1.03625,1.226251 1.9975,2.361252 2.6175,3.073752 l 14.72396,16.750012 c 4.89,5.567505 7.23375,8.330007 8.08875,9.541257 l 0.14625,0.206251 0.25375,0 c 0.8325,0 1.45501,-0.386251 1.66751,-1.033751 l 0.0337,-0.10125 -0.0112,-0.10625 c -0.0863,-0.738751 -0.18875,-3.255003 -0.18875,-11.046258 l -0.002,-16.027512 c -0.01,-3.251253 -0.0312,-10.016257 0.90125,-11.9950089 0.08,-0.16 0.8425,-0.70125 3.18875,-1.068751 l 1.05,-0.1475 0.11375,-0.1175 z"
     id="path2869"
     style="fill:#880a22;fill-opacity:1;fill-rule:nonzero;stroke:none" /><path
     d="m 465.7267,161.93631 0,-54.21879 c 0,-16.142508 0.3025,-18.73251 9.29001,-19.49376 l 3.80625,-0.30375 c 0.9125,-0.612501 0.6075,-3.352503 -0.30625,-3.807503 -7.61375,0.30375 -12.79001,0.455 -18.88376,0.455 -6.39626,0 -11.57501,-0.15125 -19.18877,-0.455 -0.9125,0.455 -1.21875,3.195002 -0.30375,3.807503 l 3.80626,0.30375 c 8.985,0.76125 9.29,3.351252 9.29,19.49376 l 0,54.21879 c 0,16.14376 -0.305,18.27376 -9.29,19.34126 l -3.80626,0.45625 c -0.915,0.9125 -0.60875,3.35125 0.30375,3.80875 7.61376,-0.305 12.79251,-0.4575 19.18877,-0.4575 6.09375,0 11.27001,0.1525 18.88376,0.4575 0.91375,-0.4575 1.21875,-3.20125 0.30625,-3.80875 l -3.80625,-0.45625 c -8.98751,-1.0675 -9.29001,-3.1975 -9.29001,-19.34126 z"
     id="path2867"
     style="fill:#880a22;fill-opacity:1;fill-rule:nonzero;stroke:none" /><path
     d="m 497.57798,37.229972 0,-22.591266 c 0,-6.8662549 0.22375,-7.3662549 3.425,-7.6362559 l 1.71125,-0.13625 0.105,-0.07125 c 0.3175,-0.21125 0.47875,-0.65125 0.44125,-1.207501 -0.0112,-0.22125 -0.1025,-0.96625 -0.625,-1.222501 l -0.10875,-0.05375 -0.125,0.005 c -2.99875,0.118751 -5.24125,0.187501 -7.84876,0.187501 -2.7275,0 -4.905,-0.06625 -7.97375,-0.187501 l -0.125,-0.005 -0.11,0.05375 c -0.525,0.257501 -0.6125,1.003751 -0.6275,1.226251 -0.0337,0.553751 0.1275,0.993751 0.445,1.205001 l 0.105,0.07 1.70875,0.135 c 3.2025,0.271251 3.4275,0.771251 3.4275,7.6375059 l 0,22.591266 c 0,6.831255 -0.16375,7.186256 -3.4425,7.576256 l -1.7525,0.21 -0.12,0.11875 c -0.36375,0.36125 -0.4175,0.953751 -0.34625,1.388751 0.075,0.468751 0.295,0.825001 0.6,0.976251 l 0.1125,0.055 0.125,-0.005 c 3.2225,-0.125 5.34125,-0.18875 7.97375,-0.18875 2.51126,0 4.69376,0.06625 7.84876,0.18875 l 0.125,0.005 0.10875,-0.055 c 0.525,-0.25875 0.61375,-1.005001 0.6275,-1.227501 0.035,-0.55125 -0.12625,-0.988751 -0.44375,-1.198751 l -1.7975,-0.2675 c -3.28375,-0.39 -3.44375,-0.745001 -3.44375,-7.576256 z"
     id="path2865"
     style="fill:#880a22;fill-opacity:1;fill-rule:nonzero;stroke:none" /><path
     d="m 517.05049,95.075015 c -11.57501,8.986255 -19.19251,23.456265 -19.19251,40.362525 0,19.64376 9.44625,33.50252 21.62876,41.88253 11.11751,7.46 24.21377,10.2025 37.92253,10.2025 9.74626,0 20.71502,-2.285 24.06252,-3.505 1.6775,-0.60625 3.5025,-1.21625 5.33125,-1.5225 2.28375,-2.8925 6.24376,-12.94376 7.31001,-20.86501 -0.6075,-1.06501 -2.895,-1.36876 -3.95751,-0.61 -3.50625,8.9875 -12.1875,21.78126 -31.83377,21.78126 -24.97502,0 -45.23378,-17.66876 -45.23378,-49.65003 0,-31.52502 19.80251,-46.298781 43.10253,-46.298781 22.08502,0 28.93877,11.877509 31.22127,22.237521 1.06375,0.91 3.35126,0.75875 4.11126,-0.30625 -1.21626,-9.288762 -1.97751,-18.883769 -2.13126,-22.387522 -1.3725,0.151251 -2.4375,-0.15375 -4.2625,-0.60875 -7.16125,-1.980001 -18.73626,-3.655003 -26.95877,-3.655003 -15.84001,0 -30.00252,4.263753 -41.12003,12.94251 z"
     id="path2863"
     style="fill:#880a22;fill-opacity:1;fill-rule:nonzero;stroke:none" /><path
     d="m 558.48552,6.7324501 c 0.34375,-0.34625 0.4,-0.948751 0.34375,-1.360001 -0.06,-0.4625 -0.265,-0.81375 -0.575,-0.992501 l -0.1275,-0.0725 -0.14625,0.0087 c -2.12625,0.127501 -4.0725,0.187501 -6.12625,0.187501 -2.49501,0 -4.88751,-0.06875 -6.56501,-0.187501 l -0.14875,-0.01 -0.12875,0.075 c -0.35125,0.201251 -0.58875,0.621251 -0.6375,1.123751 -0.0488,0.506251 0.1125,0.973751 0.435,1.252501 l 0.11375,0.1 1.29,0.1425 c 2.21875,0.253751 2.42375,0.718751 2.42625,0.718751 0,0.415 -0.0613,1.051251 -0.5375,2.3000019 -1.09375,2.763751 -4.1175,10.030007 -5.8925,14.20001 -0.47125,1.080001 -1.065,2.487502 -1.71875,4.040003 -1.20375,2.851252 -2.66875,6.323754 -3.91375,9.051256 -3.00376,-6.897455 -5.76876,-13.81871 -8.57501,-20.891215 -1.8575,-4.556253 -2.92375,-7.8700049 -3.1225,-8.6950059 0.0975,-0.20125 0.6475,-0.475 2.54625,-0.725001 l 1.09375,-0.145 0.11,-0.095 c 0.325,-0.2775 0.48875,-0.745 0.44,-1.251251 -0.0488,-0.50375 -0.28875,-0.925 -0.6375,-1.126251 l -0.12375,-0.0725 -0.145,0.0075 c -2.8225,0.133751 -5.04125,0.187501 -7.65626,0.187501 -2.64875,0 -4.6725,-0.0575 -6.5675,-0.187501 l -0.15625,-0.01 -0.13375,0.08375 c -0.36875,0.230001 -0.61,0.657501 -0.65,1.143751 -0.0362,0.485001 0.135,0.942501 0.46,1.223751 l 0.11375,0.1 1.295,0.1425 c 2.4675,0.287501 3.31,1.418751 4.745,4.9050039 l 11.16751,27.53627 c 1.33,3.298752 2.305,6.117505 2.8975,8.381256 l 0.0612,0.23625 0.2275,0.0925 c 0.36875,0.15 0.74875,0.225001 1.135,0.225001 0.36375,0 0.71,-0.09625 0.97126,-0.271251 l 0.1425,-0.095 0.0512,-0.1625 c 1.08875,-3.407502 4.135,-10.887508 6.58125,-16.513762 l 3.42625,-7.805006 c 2.94125,-6.672505 5.38751,-11.701258 7.07501,-14.5375099 0.8075,-1.305001 1.6575,-1.882502 2.9175,-1.988752 l 2.09,-0.13875 0.12875,-0.13125 z"
     id="path2861"
     style="fill:#880a22;fill-opacity:1;fill-rule:nonzero;stroke:none" /><path
     d="m 602.01805,38.339973 0.0325,-0.1525 -0.0663,-0.1425 c -0.27375,-0.61 -0.9475,-0.883751 -1.49125,-0.883751 -0.315,0 -0.59875,0.08375 -0.82125,0.242501 l -0.15125,0.18 c -1.8212,3.632502 -3.4587,5.472504 -4.2887,5.935004 -1.365,0.681251 -3.28375,0.901251 -7.90626,0.901251 -5.2875,0 -6.6475,-0.632501 -7.31875,-1.305001 -0.90125,-0.956251 -1.07875,-3.022502 -1.07875,-6.266255 l 0,-8.946257 c 0,-1.22875 0,-1.22875 1.60875,-1.22875 l 3.68125,0 c 2.21625,0 3.875,0.05125 4.7675,0.30375 0.8825,0.22 1.33375,0.79375 1.61376,2.048751 l 0.5675,2.471252 0.0975,0.2025 c 0.23875,0.286251 0.68375,0.458751 1.19125,0.458751 0.58125,0 1.0525,-0.22 1.26,-0.586251 l 0.065,-0.1125 0,-0.13 c 0,-0.62 -0.0487,-1.438751 -0.105,-2.357502 -0.07,-1.156251 -0.14875,-2.467502 -0.14875,-3.737502 0,-1.327501 0.0788,-2.686252 0.14625,-3.883753 0.0588,-0.970001 0.1075,-1.841252 0.1075,-2.523752 l 0,-0.12875 -0.0625,-0.1125 c -0.21,-0.368751 -0.68375,-0.590001 -1.265,-0.590001 -0.505,0 -0.95,0.17125 -1.18875,0.457501 l -0.61125,2.818752 c -0.28501,1.450001 -0.64126,1.666251 -1.19626,1.850001 -0.67875,0.2275 -2.59,0.3575 -5.23875,0.3575 l -3.68125,0 c -1.60875,0 -1.60875,0 -1.60875,-1.291251 l 0,-12.6912589 c 0,-2.051251 0,-2.051251 1.42,-2.051251 l 4.56875,0 c 2.6925,0 4.75,0.0625 6.04001,0.36875 2.89,0.723751 3.47125,2.5537519 4.3525,5.3225039 l 0.12,0.38125 0.09,0.16125 c 0.215,0.2625 0.58125,0.4075 1.0325,0.4075 0.4375,0 1.05,-0.15 1.33125,-0.57 l 0.0975,-0.145 -0.0862,-0.932501 C 597.5681,8.7424521 597.2656,5.6036991 596.9231,4.6399491 l -0.14875,-0.416251 -0.4275,0.105 c -0.705,0.175001 -4.64125,0.175001 -8.44751,0.175001 l -11.93126,0 c -2.44625,0 -4.5375,-0.0525 -7.4625,-0.187501 l -0.1275,-0.0063 -0.11,0.055 c -0.5225,0.256251 -0.6125,1.000001 -0.6275,1.221251 -0.0362,0.556251 0.125,0.996251 0.44,1.208751 l 1.23,0.205 c 3.2475,0.383751 3.44,0.806251 3.44,7.5137559 l 0,22.845017 c 0,6.876255 -0.395,7.175005 -3.49125,7.446255 l -2.265,0.205 -0.1275,0.125 c -0.35875,0.35875 -0.415,0.948751 -0.34625,1.382501 0.075,0.470001 0.2925,0.828751 0.5975,0.981251 l 0.1125,0.05625 0.125,-0.005 c 3.66375,-0.12 5.87375,-0.18875 8.6125,-0.18875 l 5.71126,0 c 5.53625,0 11.09876,0.06125 16.99876,0.18875 l 0.3125,0.0075 0.1375,-0.28375 c 0.85125,-1.781252 2.44625,-6.706255 2.89,-8.933757 z"
     id="path2859"
     style="fill:#880a22;fill-opacity:1;fill-rule:nonzero;stroke:none" /><path
     d="m 634.81433,24.024963 c -1.8125,1.372501 -4.28501,1.550001 -6.23876,1.550001 -2.86625,0 -3.7475,-0.10875 -4.01125,-0.1875 -0.0725,-0.263751 -0.0725,-1.011251 -0.0725,-1.737502 l 0,-14.8500099 c 0,-1.426251 0,-1.543751 3.6375,-1.543751 7.13626,0 9.66501,5.0037529 9.66501,9.2862559 0,3.517503 -0.94625,5.896254 -2.98,7.482506 z m 19.12501,23.613767 c 0.29375,-0.23125 0.4425,-0.60625 0.38625,-0.980001 -0.0512,-0.34625 -0.26625,-0.625 -0.57375,-0.745 l -0.14125,-0.0325 c -1.51375,-0.11 -3.0425,-0.730001 -4.1,-1.665001 -4.37,-3.663753 -7.84626,-9.015007 -12.65376,-16.763763 -0.33125,-0.535 -0.38,-0.78125 -0.3725,-0.885 2.10875,-0.880001 8.06375,-3.990003 8.06375,-10.978759 0,-5.315003 -3.00875,-8.0000049 -5.5275,-9.3125059 -3.18125,-1.727501 -7.25875,-1.961252 -10.82751,-1.961252 -5.81125,0 -10.32,0.162501 -14.19251,0.507501 l -0.175,0.05 c -0.36875,0.185 -0.61375,0.59375 -0.655,1.093751 -0.0438,0.545 0.15875,1.0675 0.52,1.327501 l 0.1,0.075 2.15875,0.265 c 2.06751,0.2525 2.36501,0.7 2.36501,6.9387549 l 0,22.786267 c 0,6.710004 -0.15625,7.057505 -3.37626,7.447505 l -1.7775,0.21125 -0.12375,0.14375 c -0.35875,0.417501 -0.39375,1.022501 -0.3075,1.450001 0.085,0.428751 0.295,0.743751 0.59,0.888751 l 0.11,0.055 0.125,-0.005 c 2.8225,-0.11625 5.12876,-0.18875 7.91251,-0.18875 2.6225,0 4.82625,0.0725 7.53125,0.18875 l 0.1275,0.0063 0.1125,-0.0575 c 0.46625,-0.23125 0.58,-0.841251 0.61,-1.091251 0.0638,-0.56125 -0.0825,-1.048751 -0.39375,-1.303751 l -0.105,-0.0875 -1.46875,-0.20875 c -3.2625,-0.45375 -3.38875,-0.731251 -3.38875,-7.448755 l 0,-7.998756 c 0,-0.906251 0,-0.906251 2.495,-0.906251 2.43625,0 3.26375,0.58375 4.10625,1.817501 0.96501,1.401251 2.08501,3.177503 3.17126,4.896254 1.135,1.795001 2.2075,3.490002 3.0525,4.688753 4.3575,6.210005 7.64626,8.201256 13.53251,8.201256 1.225,0 2.2975,-0.1225 2.94125,-0.3375 l 0.14875,-0.08125 z"
     id="path2857"
     style="fill:#880a22;fill-opacity:1;fill-rule:nonzero;stroke:none" /><path
     d="m 669.9256,12.989955 c 0,-2.448752 0.91875,-6.5587549 7.06626,-6.5587549 5.595,0 7.3025,3.6412529 8.16125,6.8125049 l 0.095,0.18125 c 0.2025,0.24875 0.54501,0.385 0.96001,0.385 0.47875,0 1.1225,-0.1925 1.40375,-0.61875 l 0.08,-0.12125 0,-0.146251 c 0,-2.592501 -0.53375,-6.2162539 -1.16625,-7.9137549 l -0.12,-0.3175 -0.3375,0 c -0.44876,0 -1.29376,-0.11125 -2.10126,-0.360001 -1.51625,-0.4075 -3.89375,-0.8425 -6.02375,-0.8425 -8.03376,0 -13.43251,4.581253 -13.43251,11.4000079 0,5.796254 4.42875,9.583757 7.07125,11.325008 l 6.03001,3.938753 c 4.3825,2.818752 4.985,5.738754 4.985,8.473756 0,3.388753 -2.3025,6.807505 -7.44625,6.807505 -6.42376,0 -9.22626,-4.952503 -10.44876,-9.106256 l -0.0613,-0.13375 c -0.19,-0.283751 -0.535,-0.438751 -0.96875,-0.438751 -0.42,0 -1.02875,0.16125 -1.355,0.618751 l -0.0963,0.13625 0.005,0.1675 c 0.1225,2.868752 0.9375,7.566256 1.7725,9.096257 l 0.0638,0.12 0.12,0.06875 c 1.2425,0.72625 4.72125,2.412502 10.14376,2.412502 8.37625,0 14.00376,-4.913754 14.00376,-12.227509 0,-5.075004 -2.66876,-9.193757 -8.15876,-12.59501 l -5.08125,-3.175002 c -1.92875,-1.196251 -5.16376,-3.747503 -5.16376,-7.388755 z"
     id="path2853"
     style="fill:#880a22;fill-opacity:1;fill-rule:nonzero;stroke:none" /><path
     d="m 663.7106,139.85129 -18.73376,0 c -4.26501,0 -4.41626,-0.1525 -3.19751,-3.65375 l 9.59501,-26.50001 c 1.67375,-4.56751 3.195,-8.22501 3.6525,-8.98876 l 0.3075,0 c 0.915,1.8275 2.2825,5.94375 3.49751,9.59626 l 8.2275,24.82501 c 1.3725,4.11375 1.0675,4.72125 -3.34875,4.72125 z m 39.29128,41.42628 c -6.55001,-0.76375 -8.52751,-3.0475 -12.94626,-16.14501 l -20.86377,-61.22379 c -2.28375,-6.698754 -4.72,-13.706259 -6.7025,-20.407514 -0.305,-1.065 -1.36875,-1.370001 -2.2825,-1.370001 -1.6775,1.980002 -4.26251,4.721254 -7.92001,5.788755 0.45875,2.436251 -0.45625,5.327504 -2.59,10.808758 l -15.53251,41.122522 c -6.39626,17.05751 -10.66126,26.95752 -13.40626,33.96252 -2.12875,5.48376 -5.47751,7.16001 -9.13251,7.46376 l -5.0275,0.45625 c -0.9125,0.76 -0.6075,3.19875 0.3075,3.80875 4.11125,-0.1525 9.59,-0.4575 14.61751,-0.4575 7.1575,0.1525 11.88251,0.1525 15.84251,0.4575 1.36625,-0.61 1.36625,-3.04875 0.3025,-3.80875 l -5.0275,-0.45625 c -3.65501,-0.30375 -4.41876,-1.21875 -4.41876,-3.0475 0,-1.675 1.07,-5.78626 3.35251,-12.64126 l 5.32875,-15.98876 c 1.07,-3.20126 1.98,-3.65626 5.78875,-3.65626 l 22.99627,0 c 4.5675,0 5.18,0.455 6.2475,3.80626 l 6.69876,20.71251 c 1.22125,3.65625 1.98,6.39626 1.98,8.07126 0,1.525 -2.13125,2.44 -5.3275,2.74375 l -4.41876,0.45625 c -1.06875,0.76 -0.915,3.19875 0.305,3.80875 4.41751,-0.1525 10.20126,-0.4575 17.51252,-0.4575 6.85375,0 12.18501,0.1525 18.42751,0.4575 0.76,-0.61 1.065,-3.04875 0,-3.80875 l -4.11125,-0.45625 z"
     id="path2851"
     style="fill:#880a22;fill-opacity:1;fill-rule:nonzero;stroke:none" /><path
     d="m 713.45939,37.229972 0,-22.591266 c 0,-6.9350049 0.19,-7.3637549 3.415,-7.6362559 l 1.71875,-0.13625 0.105,-0.07125 c 0.3175,-0.21125 0.47875,-0.65 0.4425,-1.203751 -0.015,-0.2225 -0.10375,-0.9675 -0.62375,-1.225001 l -0.10875,-0.055 -0.125,0.005 c -3.0025,0.118751 -5.24875,0.187501 -7.85126,0.187501 -2.7225,0 -4.905,-0.06625 -7.97875,-0.187501 l -0.125,-0.005 -0.1125,0.05625 c -0.5175,0.258751 -0.605,1.006251 -0.62,1.228751 -0.0338,0.551251 0.1275,0.988751 0.4425,1.198751 l 0.105,0.07125 1.71125,0.135 c 3.235,0.273751 3.425,0.702501 3.425,7.6375059 l 0,22.591266 c 0,6.832505 -0.16125,7.186256 -3.4425,7.576256 l -1.755,0.21 -0.1175,0.11875 c -0.36125,0.36125 -0.415,0.951251 -0.34625,1.385001 0.075,0.468751 0.2925,0.826251 0.59625,0.978751 l 0.11375,0.05625 0.125,-0.005 c 3.23,-0.125 5.35125,-0.18875 7.97875,-0.18875 2.52126,0 4.62126,0.06375 7.85126,0.18875 l 0.125,0.005 0.10875,-0.05625 c 0.5225,-0.25875 0.61125,-1.006251 0.62375,-1.228751 0.0338,-0.55 -0.1275,-0.986251 -0.4425,-1.195001 l -1.80375,-0.26875 c -3.27625,-0.39 -3.435,-0.743751 -3.435,-7.576256 z"
     id="path2847"
     style="fill:#880a22;fill-opacity:1;fill-rule:nonzero;stroke:none" /><path
     d="m 771.31318,3.5311981 0.0462,-0.17625 -0.0788,-0.165 c -0.23375,-0.472501 -0.89,-0.525001 -1.16375,-0.525001 -0.15875,0 -0.39125,0.0175 -0.59625,0.09875 l -0.15875,0.06375 -0.085,0.1475 c -0.815,1.413751 -1.1525,1.528752 -4.52876,1.528752 l -26.23252,0 c -2.84,0 -4.11375,-0.148751 -4.3775,-1.567502 l -0.0275,-0.15 -0.11,-0.1075 c -0.175,-0.175 -0.46125,-0.26 -0.87375,-0.26 -0.15125,0 -0.66625,0.0125 -0.9475,0.2 l -0.17375,0.11625 -0.0362,0.20625 c -0.44375,2.535002 -1.38375,6.552505 -2.39,9.3775069 l -0.0712,0.19625 0.0937,0.18625 c 0.385,0.765001 1.68375,1.137501 2.38,0.613751 l 0.1025,-0.0775 0.0538,-0.1175 c 0.645,-1.468751 1.255,-2.857502 2.73375,-4.2150029 1.4025,-1.285001 4.56875,-1.458751 7.48126,-1.458751 l 3.49125,0 c 1.41375,0 1.41375,0 1.41375,1.541251 l 0,28.3712709 c 0,6.876255 -0.39625,7.175005 -3.48875,7.446255 l -2.28375,0.19 -0.21375,0.06875 c -0.38125,0.23375 -0.59375,0.708751 -0.5675,1.272501 0.02,0.4275 0.18875,0.957501 0.60625,1.163751 l 0.11,0.05375 0.12125,-0.0038 c 3.8825,-0.1175 6.22625,-0.18875 8.80375,-0.18875 2.48125,0 4.52626,0.06 8.29376,0.18875 l 0.1225,0.005 0.1125,-0.055 c 0.5225,-0.2575 0.61,-1.002501 0.625,-1.225001 0.0338,-0.5525 -0.1275,-0.990001 -0.4425,-1.200001 l -2.25875,-0.27 c -3.17376,-0.27375 -3.36126,-0.691251 -3.36126,-7.446255 l 0,-28.4487709 c -0.003,-0.645001 -0.003,-1.252501 0.1025,-1.356251 0.1075,-0.1075 0.79626,-0.1075 1.25251,-0.1075 l 4.5025,0 c 3.4,0 5.715,0.4875 7.0725,1.491251 0.5975,0.44125 1.11751,2.0475009 1.39126,4.2987529 l 0.015,0.14125 0.09,0.11 c 0.235,0.28375 0.66375,0.4525 1.1525,0.4525 0.6025,0 1.10625,-0.25875 1.31375,-0.67375 l 0.0612,-0.125 -0.015,-0.14 c -0.18375,-1.821252 0.25375,-6.9312549 0.9375,-9.4700069 z"
     id="path2845"
     style="fill:#880a22;fill-opacity:1;fill-rule:nonzero;stroke:none" /><path
     d="m 797.27695,84.416257 c -2.5925,-0.60875 -10.66376,-2.283752 -19.34502,-2.283752 -22.99876,0 -38.07378,7.155006 -48.27628,17.817513 -9.44376,10.050012 -13.71126,23.148772 -13.71126,36.095022 0,13.40251 4.8775,25.43252 14.01376,34.57002 11.72626,11.88001 28.32752,16.90751 46.45003,16.90751 8.22501,0 19.19002,-1.82875 27.26502,-3.96 2.89125,-0.76125 5.63501,-1.3725 7.45626,-1.3725 0.61375,-0.45625 0.61375,-1.3725 0.15625,-1.82625 -2.73875,-1.06625 -3.65501,-4.72 -3.65501,-10.81251 l 0,-8.53125 c 0,-7.76501 0.155,-12.03001 6.54876,-12.79251 l 2.43875,-0.305 c 1.065,-0.9125 0.91,-3.19626 -0.15125,-3.80626 -5.0275,0.3025 -10.20751,0.45375 -16.14501,0.45375 -8.98751,0 -17.36376,-0.15125 -21.78002,-0.45375 -1.0675,0.45375 -1.21875,3.20001 0,3.80626 l 6.70126,0.76375 c 9.44126,1.065 9.89751,1.98 9.89751,14.77126 l 0,6.09375 c 0,4.87126 -0.75876,7.61376 -1.51876,8.67876 -1.67875,2.5875 -7.31125,4.57125 -16.75751,4.57125 -30.61252,0 -45.69128,-23.00127 -45.69128,-52.24003 0,-22.84377 12.95251,-43.862531 42.49628,-43.862531 15.53376,0 26.95502,5.180004 31.22002,21.626271 0.91625,0.915 3.65751,0.765 4.11376,-0.45626 -1.37251,-9.138752 -2.28751,-17.057508 -2.28751,-22.081262 -1.82625,0.30375 -6.5475,-0.762501 -9.43875,-1.371251 z"
     id="path2843"
     style="fill:#880a22;fill-opacity:1;fill-rule:nonzero;stroke:none" /><path
     d="m 819.51571,6.7574501 c 0.3225,-0.28125 0.49625,-0.73875 0.45875,-1.225001 -0.0362,-0.485 -0.2775,-0.9125 -0.64625,-1.142501 l -0.1325,-0.0825 -0.15375,0.0087 c -4.51375,0.262501 -7.1725,0.261251 -11.94001,0 l -0.13,-0.0075 -0.1175,0.05875 c -0.35375,0.177501 -0.5975,0.535001 -0.66875,0.980001 -0.0825,0.512501 0.0762,1.042501 0.415,1.385001 l 0.1225,0.1225 1.30625,0.14375 c 1.23251,0.15375 1.99876,0.455001 2.22376,0.621251 -0.2,0.908751 -2.41876,5.0262529 -3.76751,7.5250049 l -0.29,0.540001 c -1.52875,2.955002 -3.29125,6.138754 -5.5225,9.966257 -1.6725,-3.021252 -3.3025,-6.343755 -4.8825,-9.565007 -0.6225,-1.263751 -1.24001,-2.522502 -1.86001,-3.760003 -0.4575,-0.9175 -1.8925,-4.1612529 -1.9175,-4.6662529 0,-0.1275 0.29375,-0.3825 2.25375,-0.662501 l 0.98376,-0.15 0.115,-0.115 c 0.34375,-0.34625 0.49125,-0.971251 0.35625,-1.518751 -0.1025,-0.435 -0.37625,-0.75375 -0.7475,-0.873751 l -0.0925,-0.03125 -0.095,0.0087 c -1.55751,0.122501 -3.82751,0.186251 -6.75251,0.186251 -2.9375,0 -5.26375,-0.06 -7.32751,-0.187501 l -0.14375,-0.0087 -0.12875,0.0725 c -0.31,0.178751 -0.5225,0.511251 -0.59625,0.937501 -0.085,0.508751 0.0462,1.041251 0.345,1.390001 l 0.11375,0.13125 1.94876,0.346251 c 1.6825,0.28375 2.52375,0.425 4.66,4.5625029 l 7.48625,14.60126 c 1.79126,3.453753 1.97751,4.168753 1.97751,7.646256 l 0,3.235002 c 0,6.887505 -0.15625,7.241256 -3.36751,7.576256 l -2.1425,0.205 -0.1225,0.125 c -0.36125,0.36375 -0.4125,0.956251 -0.3425,1.390001 0.0788,0.467501 0.29625,0.821251 0.60125,0.972501 l 0.11,0.05625 0.12375,-0.005 c 3.41876,-0.125 5.64251,-0.18875 8.29376,-0.18875 2.57625,0 4.84875,0.07125 8.61625,0.18875 l 0.12126,0.005 0.11,-0.05625 c 0.305,-0.15125 0.525,-0.51 0.60125,-0.980001 0.07,-0.43375 0.0138,-1.025001 -0.35,-1.385001 l -0.12625,-0.1262 -2.58751,-0.2025 c -2.9375,-0.22125 -3.3575,-0.705001 -3.3575,-7.575006 l 0,-3.302502 c 0,-4.755004 0.13375,-5.223754 2.915,-10.033757 l 3.99876,-6.916256 c 0.36375,-0.625 0.71125,-1.23 1.0425,-1.813751 2.495,-4.360003 4.3,-7.5112549 6.995,-7.9787549 l 1.91125,-0.338751 0.1025,-0.08875 z"
     id="path2841"
     style="fill:#880a22;fill-opacity:1;fill-rule:nonzero;stroke:none" /><path
     d="m 853.16574,131.01879 c 0,-33.352523 20.55751,-44.166281 36.39877,-44.166281 29.08753,0 40.20503,27.107521 40.20503,52.238781 0,30.00002 -17.36001,43.71003 -35.63627,43.71003 -30.00252,0 -40.96753,-29.24377 -40.96753,-51.78253 z m -15.22876,4.8725 c 0,27.41377 20.40501,51.63003 54.21629,51.63003 29.39377,0 52.84629,-22.38876 52.84629,-53.15378 0,-26.80127 -17.66877,-52.236285 -52.84629,-52.236285 -31.37253,0 -54.21629,23.302515 -54.21629,53.760035 z"
     id="path2839"
     style="fill:#880a22;fill-opacity:1;fill-rule:nonzero;stroke:none" /><path
     d="m 889.84327,27.711215 c 0,13.08126 -7.73626,17.722513 -14.36002,17.722513 -13.09376,0 -16.59001,-13.255009 -16.59001,-21.086265 0,-13.22501 7.91001,-17.9162629 14.68501,-17.9162629 12.00501,0 16.26502,11.4637579 16.26502,21.2800149 z m 7.32125,-1.971251 c 0,-10.716258 -7.0425,-22.2500159 -22.50877,-22.2500159 -13.16001,0 -23.08126,9.8400069 -23.08126,22.8887659 0,10.931258 7.9275,21.997517 23.08126,21.997517 12.83126,0 22.50877,-9.731258 22.50877,-22.636267 z"
     id="path2835"
     style="fill:#880a22;fill-opacity:1;fill-rule:nonzero;stroke:none" /><path
     d="m 939.7583,13.398705 0.0588,-0.11625 -0.008,-0.13125 c -0.125,-2.295002 -0.19625,-5.2600039 -0.19625,-8.3487559 l 0,-0.610001 -0.595,0.135 c -0.76875,0.176251 -4.6775,0.176251 -8.45501,0.176251 l -11.68,0 c -2.39001,0 -4.51376,-0.05375 -7.33376,-0.187501 l -0.12375,-0.0063 -0.1125,0.055 c -0.525,0.257501 -0.6125,1.002501 -0.6275,1.225001 -0.0362,0.555001 0.12625,0.995001 0.44625,1.206251 l 1.22125,0.2025 c 3.2225,0.388751 3.37875,0.738751 3.37875,7.5150059 l 0,22.845017 c 0,6.710004 -0.15625,7.058755 -3.37625,7.447505 l -1.75375,0.21 -0.11875,0.1175 c -0.36125,0.3575 -0.4175,0.947501 -0.35,1.380001 0.0762,0.472501 0.29375,0.831251 0.59625,0.985001 l 0.115,0.0575 0.12625,-0.0062 c 2.97125,-0.1225 5.1125,-0.18875 7.91251,-0.18875 2.56125,0 4.76125,0.06875 8.42625,0.18875 l 0.12125,0.005 0.1125,-0.05625 c 0.415,-0.2075 0.59375,-0.772501 0.6225,-1.232501 0.0325,-0.55 -0.12875,-0.983751 -0.44875,-1.192501 l -2.38,-0.26875 c -3.235,-0.27375 -3.42875,-0.691251 -3.42875,-7.446255 l 0,-8.823757 c 0,-1.226251 0,-1.226251 1.60875,-1.226251 l 4.3175,0 c 2.22625,0 3.88626,0.05125 4.73626,0.295 0.89125,0.28375 1.37125,0.866251 1.70875,2.065002 l 0.66875,2.628752 0.1175,0.1 c 0.6275,0.54 1.9725,0.51 2.375,-0.10125 l 0.0838,-0.1225 0,-0.14625 c 0,-0.658751 -0.0512,-1.506252 -0.1075,-2.448752 -0.0688,-1.151251 -0.145,-2.455002 -0.145,-3.708753 0,-1.285001 0.0762,-2.645002 0.145,-3.843753 0.0562,-0.986251 0.1075,-1.877501 0.1075,-2.565002 l 0,-0.14625 -0.0838,-0.1225 c -0.3,-0.455 -0.945,-0.50375 -1.20625,-0.50375 -0.5275,0 -0.98625,0.17125 -1.2275,0.45875 l -0.66875,2.742502 c -0.35625,1.538751 -0.78375,1.691251 -1.2675,1.865001 -0.66875,0.225001 -2.62876,0.358751 -5.23626,0.358751 l -4.3175,0 c -1.60875,0 -1.60875,0 -1.60875,-1.223751 l 0,-13.3925099 c 0,-2.051251 0,-2.051251 1.42125,-2.051251 l 3.87,0 c 2.62125,0 4.69251,0 6.03001,0.3675 2.7225,0.707501 3.535,2.5287519 4.085,5.6412539 l 0.0312,0.17125 0.13125,0.11375 c 0.245,0.21 0.58375,0.32625 0.96,0.32625 0.48875,0 1.08625,-0.20625 1.32125,-0.6675"
     id="path24"
     style="fill:#880a22;fill-opacity:1;fill-rule:nonzero;stroke:none" /><path
     d="m 24.011379,136.21879 c 1.362501,0.9225 2.965002,1.33 4.435003,1.9575 1.821251,4.76125 0.04375,9.44126 -0.977501,7.5 -1.793751,-3.405 -2.498752,-6.22875 -3.457502,-9.4575 z m 0.085,-52.143783 -0.1125,-0.11 c -0.1325,0 -9.465007,5.888754 -15.5300117,3.061252 C 12.971371,84.527507 28.618882,74.585 32.898885,71.764998 c 2.020002,0.435 2.836252,-0.2925 3.481253,-0.743751 -1.635001,0.1025 -7.056255,0.948751 -4.316253,-3.902503 1.05375,4.348754 8.656256,0.347501 11.385008,-0.28125 7.605006,-1.750001 7.550006,6.378755 6.901255,9.738757 -0.2425,1.252501 2.330002,2.141252 3.597503,1.961252 -2.180002,5.370004 -5.901255,0.3075 -6.345005,2.356251 -0.18,0.830001 -2.671252,1.481252 -2.660002,3.545003 0.015,2.818752 1.116251,1.277501 1.217501,3.463753 0.1125,2.117501 -0.902501,0.46875 -0.6725,2.758752 0.36375,3.636252 6.378754,-0.482501 8.863756,0.5 1.243751,0.49125 2.067502,1.603751 3.280002,1.385001 0.353751,-0.29 0.193751,-1.665001 0.138751,-2.155002 -0.127501,-1.155 -2.262502,-1.290001 -3.256253,-2.866252 -0.86625,-1.375001 0.981251,-5.512504 1.982502,-6.727505 1.435001,6.828755 7.835005,4.688754 8.790006,11.868759 0.602501,2.030002 -2.200002,4.287503 0.0725,7.592507 -1.687501,1.63875 -3.716253,9.41001 -0.1825,13.06251 -0.6,1.655 -1.387501,5.46875 1.757501,7.6975 -1.05625,2.25251 -0.815,5.00625 0.07625,7.81001 -1.958751,0.006 -1.568751,-10.98501 -13.305009,-11.33501 -0.262501,-0.0812 -0.325001,1.24625 0.0125,1.84125 1.406251,2.47001 3.293752,2.3275 2.888752,8.14125 -0.1375,1.98751 -1.303751,-0.3475 -1.926252,-0.8975 -1.421251,-1.255 -2.520002,-1.4225 -3.138752,-5.5125 -4.768754,3.73876 -4.300003,8.26501 -4.002503,10.56501 0.0037,0.005 -1.052501,-2.86875 -2.256252,-5.81626 -0.06375,-0.15625 4.843754,-6.05875 5.623755,-7.4625 9.901257,-17.82376 -6.393755,5.76126 -6.427505,5.68126 -0.877501,-2.0325 -1.643751,-3.78376 -2.160002,-4.33626 0.12625,-0.24625 2.845002,-3.27875 4.075003,-5.8375 7.658756,-15.947513 -4.551253,5.31 -4.987503,4.92 -0.923751,-0.83125 -1.686252,-1.87125 -2.270002,-1.4975 -0.1375,2.44875 -0.722501,2.1175 -0.553751,4.61751 -1.27625,1.70375 -4.015002,4.38124 -5.930004,5.70749 0,0 -0.4775,-4.42624 -0.34875,-4.58249 0.961251,-1.17125 4.727503,-5.20876 5.497504,-6.41626 12.548759,-19.710014 -5.875004,4.74875 -5.908754,4.53875 -0.130001,-0.78 -1.140001,-2.06625 -2.215002,-3.16375 0,0 4.068753,-5.545 5.070004,-7.60625 7.636255,-15.700015 -6.137505,6.9575 -6.290005,6.87625 -0.33,-0.17375 -0.36375,-0.17 -0.748751,-0.3 -0.3825,-0.13 0.422501,-4.5225 0.953751,-7.16625 1.033751,-5.23126 -1.738751,-1.015 -2.493752,7.27375 -0.7075,0.11 -2.426251,0.29 -3.077502,0.88125 0.42125,2.21125 0.943751,0.51 1.871251,2.63625 1.110001,2.54626 -1.546251,6.72 0.765001,9.77751 0.893751,1.18 0.945001,0.98125 0.770001,1.755 -1.422501,-0.1025 -2.286252,-0.13 -3.183753,1.09875 -1.747501,-7.94001 -1.693751,-11.76376 -1.283751,-19.83251 0.1825,-3.66875 1.386251,-9.21876 0.836251,-9.32376 -0.5225,-0.1 -8.837507,21.31501 -10.845008,25.51127 -3.5062526,-1.18376 2.183752,-19.71626 9.412507,-28.63752 0.6825,-2.837503 -3.790003,2.8775 -6.461255,5.15375 -2.447502,2.0875 -5.547504,4.81001 -8.9250064,3.87626 C 10.385119,105.37002 20.328876,96.790016 21.433877,94.645015 22.360128,92.806263 14.650122,100.36627 6.5038659,97.556267 11.77512,94.731265 24.075129,88.45251 24.096379,84.075007 z M 38.76264,124.35379 c 0.0325,1.95249 -0.10625,3.39749 0.46125,5.3825 0.923751,2.995 0.46125,2.07125 -0.796251,1.0425 -1,-1.1125 -1.935001,-2.0275 -2.415001,-3.32501 -0.118751,-0.9225 0.6225,-0.97375 2.750002,-3.09999 z M 58.452654,76.096251 c -1.188751,-2.026252 1.416251,-3.960003 1.416251,-3.960003 -0.07875,5.698754 7.206255,1.787501 11.008758,3.597503 0.915001,0.42125 1.556251,1.225001 1.932502,2.070001 C 68.721412,74.97875 61.161406,80.722504 58.452654,76.096251 z M 15.605123,30.574968 c -6.5012552,0 -6.3650051,-9.750008 0,-9.750008 6.397504,0 6.397504,9.750008 0,9.750008 z m 0,19.470014 c -6.6500053,0 -6.6500053,-9.743757 0,-9.743757 6.397504,0 6.437504,9.743757 0,9.743757 z m 6.671254,-26.60877 5.667505,0 0,5.575004 -5.667505,0 0,-5.575004 z m 0,19.422515 5.667505,0 0,5.575004 -5.667505,0 0,-5.575004 z m 51.460038,15.180011 c 0,0 -5.931254,-3.217503 -12.895009,-3.681253 -6.732505,-0.4475 -20.335015,4.931254 -30.778773,4.221253 l 0,-45.893784 c 0,0 11.908759,1.583751 16.801263,-0.30375 16.633762,-6.4150039 26.872519,0.752501 26.872519,0.752501 l 0,44.905033 z m 11.491259,7.448755 c 0.29125,1.733751 -1.316251,2.167502 -1.311251,2.167502 2.496252,0.5825 3.690002,-0.903751 4.178753,-1.842502 0.960001,3.990003 -3.061252,4.215003 -4.315003,4.453754 -0.0025,-0.0012 2.037501,0.585 2.142501,1.913751 0.26625,3.372503 2.436252,3.086252 2.903752,2.820002 -0.07625,0.40625 -0.7475,2.442502 -3.185002,0.605001 -0.41375,0.40875 0.665001,1.0375 0.877501,2.712502 0.275,2.117501 0.2075,4.080003 2.652502,5.371253 -1.498751,1.191251 -3.263753,-1.911251 -3.417503,-1.541251 -0.175,0.416251 2.082502,1.555002 -0.40125,7.411256 -1.133751,-0.652501 -0.501251,-0.527501 -1.815001,-2.088752 -1.005001,-0.84125 -1.401252,-1.0325 -0.561251,0.355001 1.465001,1.831251 1.811251,6.016254 1.305001,7.146255 -1.207501,-0.526251 -0.896251,-1.491251 -2.321252,-2.803752 -0.13125,0.56 0.436251,3.333752 1.908752,4.662503 2.543752,2.296252 3.445002,5.070004 3.491252,5.616254 0.2025,2.08625 -0.45375,4.835 -0.70125,7.52501 -1.221251,-0.17625 -2.257502,-3.64001 -2.553752,-3.44501 -0.36,0.23375 0.15375,3.39126 2.453752,5.54001 1.113751,3.25625 0.6675,5.00375 0.37,5.12125 -0.3925,0.16875 -1.632501,-3.32875 -2.307502,-2.72 3.276253,8.33251 0.983751,11.235 0.1175,13.8025 -0.67625,-2.63125 -1.02,-4.59999 -1.867501,-7.58125 -1.785001,1.40126 -2.213752,3.47876 -4.396253,5.38125 0,-3.39874 -1.965002,-11.605 -3.522503,-13.51625 -0.07125,-0.0875 -2.815002,7.35625 -4.063753,10.66501 -1.622501,4.29124 -1.873751,9.655 0,13.835 -4.043753,-5.75375 -4.478753,-16.46001 -0.988751,-17.90501 0.302501,-0.765 -0.21,-3.28375 -0.9875,-2.9725 -0.22375,1.2325 -0.07375,2.28625 -1.095001,3.49 -2.678752,-0.785 -1.458751,-4.05375 -1.216251,-5.1375 3.473753,-4.165 1.301251,-5.12875 1.140001,-5.01875 -0.37625,0.95375 -0.705001,2.12375 -1.765001,2.55625 -2.228752,-3.83 -0.800001,-9.84001 3.432502,-14.331263 0.1775,-1.677501 -1.895001,1.250001 -3.243752,1.147501 -0.351251,-3.232503 0.82,-8.840007 6.796255,-9.043757 -1.141251,-0.33375 -1.751252,-0.54125 -2.027502,-1.493751 1.806252,-0.26875 7.472506,-0.701251 6.537505,-5.172504 -0.5375,0.538751 -0.70875,1.341251 -2.186252,2.240002 -0.9925,0.605 -2.073751,0.6575 -2.636252,-0.2175 2.628752,-0.870001 1.760002,-4.067503 -1.671251,-3.127503 -1.051251,0.287501 -2.588752,-0.81 -2.665002,-2.028751 0.763751,0.76375 2.312502,0.19875 3.207503,-0.3825 3.861253,-2.510002 6.218754,1.125 6.738755,1.905001 0.15625,0 1.732501,-3.631253 -3.750003,-4.608753 -0.4575,-1.276251 -1.711251,-3.533753 -5.432504,-3.248753 -1.226251,-4.327503 -4.936254,-2.193751 -4.813754,-0.235 -3.942503,-2.902502 0.06875,-6.566255 1.660002,-7.131255 1.10375,0.09125 0.86,3.587502 2.798752,2.998752 0.46875,-0.14 -1.507501,-2.407502 -0.750001,-3.436253 1.777501,-1.015 1.737501,1.301251 2.613752,0.437501 0.435,-1.516251 2.178752,-2.365002 3.616253,-2.527502 4.030003,-0.572501 7.162505,3.845003 11.026258,1.677501 z m 36.256276,-6.745005 c -8.75126,0.596251 -26.905019,-4.385003 -31.521273,-4.385003 -9.522507,0 -14.12876,3.717503 -14.12876,3.717503 0,0 0.01375,-43.227532 0,-44.783783 0,0 12.513759,-5.8675039 21.617516,-2.507502 11.148757,4.115003 24.032517,2.292502 24.032517,2.292502 l 0,45.666283 z m 11.52126,-17.661263 c 4.82375,-0.70375 5.55,4.987504 5.55,4.987504 l -0.009,0 c -1.1875,-0.943751 -3.57375,-1.371251 -5.19125,-0.32875 -5.38875,3.468752 -10.24376,3.508752 -10.24376,3.508752 l 0,-8.693756 c 0,0 1.02375,1.821251 9.89376,0.52625 z m 5.70875,-11.901259 c -0.0362,-0.2575 -0.09,-0.6525 -0.1675,-1.21 -0.1225,-0.870001 -2.61625,-1.372501 -4.38,-0.602501 -2.46625,1.077501 -8.64501,4.605004 -10.90001,3.938753 l 0,-8.692506 c 5.56126,2.412501 7.73376,0.23375 9.52251,0.23375 5.49125,0 5.76625,5.122504 5.76625,5.122504 0.0725,0.5575 0.125,0.9525 0.15875,1.21 z m -6.21375,90.098814 c -1.625,0.42375 -5.91001,2.135 -6.94376,3.81751 0.54875,-9.26501 -2.44375,-18.36502 -3.3975,-20.56377 -1.85625,-4.280003 0.83125,9.96376 1.015,13.24626 0.004,0.145 -15.37626,-19.766264 -6.09,-4.43125 2.40625,3.975 6.16625,6.56875 6.1675,6.63625 0.0637,2.765 -0.12125,4.80001 -0.6475,6.28251 -0.94625,0.75624 -20.94251,-26.610023 -9.88876,-7.65751 1.37,2.35 9.38876,9.46125 9.32251,9.60625 -0.5075,1.08 -1.40875,2.65251 -2.65125,3.81126 -0.21125,-0.21 -4.61375,-3.45626 -4.64375,-3.65376 -0.33375,-2.11624 -0.345,-4.11374 -2.95876,-2.61624 0,0 -9.8525,-11.46876 -5.29,-3.43126 1.99375,3.51376 3.3025,3.90376 3.83375,4.52876 0,0 -1.5275,2.07249 -2.02,4.2725 -0.1975,0.88125 -8.542506,-9.25126 -5.2675,-2.88626 1.04875,2.03875 4.86375,4.26501 4.8225,4.41001 -0.39,1.325 -0.78625,2.60875 -1.20375,3.44375 -0.525,1.0575 -7.851256,6.8975 -7.841256,6.8925 0,-0.002 1.432496,-4.62625 4.547506,-6.8925 1.7775,-1.30125 1.7825,-1.015 2.96125,-1.755 -0.025,-0.68375 -0.6825,-1.8 -1.53625,-2.095 -1.06875,-0.3775 -4.53626,0.2525 -4.53626,0.2525 0.32376,-1.73375 -1.193746,-5.47376 -1.173746,-9.58751 -1.306251,0.12875 -3.597503,2.14751 -4.151253,3.29376 -0.4,6.81625 -1.882502,4.77375 -3.266253,9.6775 -1.506251,-2.05625 0.103751,-5.01 -1.372501,-6.93376 -2.031251,-2.64624 -2.338751,-4.43124 -2.638751,-7.68875 0.475,-0.26375 2.547501,-2.55375 0.66,-7.35875 -0.3075,-7.55001 3.066252,-10.43626 -2.966252,-15.721264 0.5075,-0.16125 0.87125,-3.946253 0.87125,-3.951253 4.445004,2.371252 3.563753,-2.743752 5.295004,-3.748753 2.750002,-1.595001 2.251252,-3.248752 1.016251,-5.308754 7.862501,2.235002 -0.355,7.610006 3.203752,7.726256 2.581252,0.07875 4.311249,-0.575001 5.431259,-2.311252 1.19375,-1.833751 -0.20625,-2.958752 3.12875,-5.932504 0.33375,-0.2975 1.2175,-2.282502 -1.4275,-2.828752 -0.57875,-0.12 0.005,-2.382502 0.005,-2.382502 -2.1175,1.792501 -2.78376,4.316253 -6.187508,2.720002 -1.742501,-0.818751 -2.872502,-0.01375 -3.586252,0.33125 0,0 -0.362501,-1.423751 1.08,-1.906251 3.725003,-1.251251 4.645004,-2.737502 4.442504,-3.551253 -0.503751,-1.935001 -0.655001,0 -0.547501,-2.038751 0.04625,-0.810001 0.988751,-1.911252 1.770001,-2.853752 2.526256,-3.048753 4.315006,-1.905002 4.960006,-1.635002 1.46875,-1.13625 1.7275,-1.05625 3.09375,-1.596251 2.33875,-0.918751 7.41001,0.608751 10.24251,1.923752 1.37375,0.6225 3.015,0.99375 4.6175,0.64125 -0.015,0.826251 -0.595,1.271251 -1.17,1.438751 -0.885,0.27375 -1.93875,0 -1.87,0.646251 0.04,0.37875 1.25125,0.445 2.00875,0.65 4.19875,1.146251 9.63501,4.907504 6.06501,4.116253 -0.42001,-0.095 2.575,2.238752 4.835,5.270004 l 8.00625,7.778756 c -0.36875,0.44125 -3.175,0.04125 -12.06625,-8.291256 -1.26501,1.12875 10.81375,10.232507 15.80001,19.895015 -0.43,0.30125 -6.64501,-1.962502 -8.88501,-4.273754 -3.4525,-3.570003 -7.42,-12.650009 -9.05001,-11.322508 -0.19625,0.07625 6.56376,10.601258 9.90376,16.843762 1.68625,3.16 3.07375,7.68626 3.1875,11.09501 0.53625,16.81501 -1.99625,15.52251 -1.99375,15.52501 -3.94,-13.25251 -5.7825,-28.64252 -11.53001,-35.742527 -2.29625,-2.835002 6.14251,12.421257 6.50501,26.175017 z m -17.41751,15.11876 c -1.77751,1.56 -2.93751,2.11375 -2.55126,1.33875 0.4325,-0.86375 0.7525,-1.595 0.99375,-2.24 0.0825,-0.21625 1.55751,0.90125 1.55751,0.90125 z m -1.16751,-2.0875 c 0.39376,-1.41375 0.39501,-2.3875 0.57751,-3.63375 0.0812,-0.53501 0.0937,-0.47126 0.11875,-0.92126 0.007,-0.1475 3.85125,3.20001 4.0675,3.33501 -0.965,1.20875 -1.79,1.64125 -2.71,2.49875 -0.65125,-0.56125 -2.09001,-1.1425 -2.05376,-1.27875 z m 12.48126,4.2775 c -5.3375,5.2725 -13.34251,3.3625 -19.65126,6.18625 -5.71625,2.08375 -9.856258,7.37001 -15.851262,8.70626 -1.762501,0.56875 -2.053752,1.45 -0.930001,1.41875 0.658751,-0.0175 4.312503,3.79625 10.158753,0.85625 1.95126,-0.9825 8.01501,-4.36 9.04001,-4.555 -3.28125,3.125 -4.92875,5.92 -7.8625,7.57 -1.796256,1.00625 -9.108761,3.625 -16.402517,2.20875 -3.231252,-0.62875 -5.718754,2.35251 -4.896253,2.28376 1.730001,-0.4625 3.670003,-0.2275 4.836253,1.3 2.117502,1.65875 5.183754,3.72625 7.822506,0.645 0.877501,-1.02125 5.065004,-3.19501 9.000011,0.7975 -4.186257,-0.21875 -3.771257,7.31125 -11.702513,6.4275 -2.936252,-0.0213 -9.423757,-6.73625 -11.271258,-4.66125 -3.278752,3.685 7.045005,7.18 2.573752,11.81376 -4.036253,4.18375 -8.860007,-3.33375 -8.860007,-3.33375 2.518752,1.0575 7.167506,1.7375 5.121254,-2.35626 -0.812501,-1.62625 -2.357502,-3.08875 -2.357502,-6.09625 -0.35375,-1.4975 -9.593757,11.89751 -15.706261,5.84625 -2.401252,-2.3775 -7.265006,-7.5925 -11.671259,-9.57875 11.668759,-0.9925 13.44626,3.67875 14.003761,4.4275 3.731252,5.035 7.180005,-0.0775 7.973755,-0.975 1.216251,-1.38375 2.936253,-3.2875 2.326252,-3.57625 -4.525003,-2.14626 -9.696257,-2.60126 -13.55751,-0.82875 8.267506,-11.36626 14.701261,-0.72251 14.700011,-0.72501 0.906251,0.56376 -0.23125,-6.74 -8.408756,-7.14375 -5.107504,-0.25125 -9.602507,4.345 -13.12501,4.34 -2.863752,-0.004 -11.546258,-5.86875 -13.58876,-11.07626 5.052504,3.78001 11.496259,5.94876 15.512512,3.55376 7.551255,-4.50126 17.061262,2.28625 17.513762,1.47625 -2.110001,-1.6525 -6.915005,-8.09126 -19.880014,-4.42125 -5.030004,2.88875 -7.151255,-2.14251 -10.240008,-2.22751 5.255004,-4.6625 8.897507,-2.29125 10.733758,-2.14875 0.43625,0 -2.192501,-2.16125 -4.033753,-2.355 -14.32876,-1.49125 -23.403767,-5.43 -23.403767,-5.43 -0.075,0 1.193751,-2.88875 7.351255,-0.80625 0,0 -5.522504,-3.38125 -5.476254,-7.72626 0.18,-2.67874 1.475001,-5.5475 -0.57375,-7.78 8.316256,-0.34 2.408752,11.25626 8.247506,14.24501 0.125,0.0475 -1.718751,-2.77125 0.880001,-4.95626 1.206251,3.40501 4.175003,5.16626 6.262504,5.71751 0.490001,-0.26875 1.096251,-1.31375 1.096251,-1.31125 -2.197502,-3.6325 -2.486252,-7.86625 -1.895001,-12.71626 l 0.0875,-0.0475 c 0.4725,0.0225 1.272501,1.66625 1.833751,2.87501 1.212501,2.60874 1.183751,6.36125 3.600003,9.45375 1.338751,1.70375 2.167501,3.405 3.367502,4.23125 0.518751,-1.20875 0.135,-3.28375 0.055,-3.83625 -0.2725,-1.96875 -1.507501,-5.41876 1.860002,-8.46625 1.573751,4.54624 3.716252,3.22749 4.006253,5.40875 0.40125,3.0525 0.26875,2.56625 -0.0425,4.91125 0.15875,3.23125 3.096252,4.14125 5.702504,6.20625 5.877504,3.19875 9.778757,4.93 12.337509,9.02626 1.248751,-6.91251 -17.407513,-8.29501 -15.001261,-21.63127 -0.25,-5.32624 0.6625,-5.77374 -3.112503,-9.025 7.486256,0.2175 11.565009,12.50501 11.971259,14.74751 0.748751,4.12125 3.251253,4.33625 6.687505,9.71 0.493751,0.18 -6.143754,-14.3175 1.768751,-26.72876 0,0 2.667502,6.44751 1.410002,10.67625 -0.758751,2.54626 -0.055,5.36376 0.08625,6.96001 0.145,1.6275 -0.325001,-5.88251 5.327503,-9.76875 0.351251,2.84249 3.075003,7.245 0.493751,11.96125 -3.140002,5.73875 -3.368753,3.67625 -3.416253,10.73501 0.285001,-0.12126 1.097501,-4.86501 3.251253,-7.56001 4.552503,-5.68875 1.301251,-8.75125 5.745004,-13.68251 0.3525,2.46625 0.981251,1.49 1.246251,3.68501 0.59625,4.93125 -4.551253,10.32375 -3.413753,10.16 1.311251,-0.185 3.413753,-1.32625 4.118753,-5.065 0,0 1.896252,3.41375 0.1625,4.55125 -3.141252,2.0625 -3.793752,4.28 -3.306252,6.77375 2.520002,-3.0075 5.961254,-6.34 5.365004,-10.6225 0.285,-2.58625 3.087502,-3.6325 3.643753,-9.63876 0.09375,-0.99624 1.08875,-2.20499 2.082501,-2.73374 -0.43375,3.37249 2.187497,6.8625 -0.7925,10.99125 0.67875,0.3625 3.199997,-3.2225 6.883757,-1.915 -7.395008,1.3325 -5.237506,9.34375 -10.90251,13.0525 -1.707502,1.1175 -1.416251,2.37251 -1.927502,2.51376 5.058754,-0.28625 8.957502,-6.31126 9.633762,-6.77001 5.085,-3.43875 6.1975,-3.96375 8.23,-9.53875 0.79625,-2.12 0.2175,-3.05626 3.03625,-5.91501 1.235,2.82 -0.56,8.66251 -0.9875,9.92251 -0.91,2.69 -4.1075,5.01875 -3.43,5.01875 13.63001,-6.015 13.45876,-10.055 16.71876,-14.36251 0.97875,-1.64499 5.82751,-4.50125 7.64126,-4.7675 -0.44375,0.89751 -2.32875,2.40876 -2.41625,4.04 -0.165,3.0125 -1.1375,4.85126 -2.66001,7.26626 0.84751,1.05125 2.47376,-1.9825 4.13751,-0.46 -2.20125,0.73 -3.18125,3.18125 -4.89126,4.6225 z m 2.27751,-0.79875 c -0.80875,3.97125 -2.18001,7.65125 -4.57001,11.07 -1.6725,2.42626 -2.3525,-2.28875 -0.91125,-6.8525 2.04625,-0.815 4.09125,-2.40125 5.48126,-4.2175 z M 118.2939,35.039971 c -0.3175,-0.11875 -0.97875,-0.24125 -1.39875,-0.24125 -0.41875,0 -0.6425,0.595 -0.1225,0.73375 0.3325,0.0925 0.95,0.20125 1.54375,0.22875 0.40375,0.0375 0.27375,-0.59625 -0.0225,-0.72125 z m -1.55,1.906251 c 0.32625,0.0975 0.92375,0.18625 1.535,0.23 0.38375,0.04875 0.25875,-0.595 -0.0375,-0.71625 -0.29875,-0.1075 -0.96,-0.235 -1.36875,-0.2425 -0.44125,0 -0.64875,0.57125 -0.12875,0.72875 z m 0,8.683757 c -0.3012,-0.353751 -1.1137,-1.027501 -1.8412,-1.542502 -0.41875,0.345001 -1.27751,0.968751 -1.82751,1.255001 -0.4075,-0.46125 -0.9475,-1.0975 -1.775,-1.740001 -0.4975,0.34 -1.9325,1.650001 -2.5375,1.995002 0.8725,0.0225 2.175,0.31125 2.22375,1.1225 0.0288,0.658751 -0.0487,4.766254 0,5.517504 0.53375,0.11375 1.165,0.06 1.94375,0.01625 0.0363,-0.58125 0.0238,-5.317503 0.0363,-5.892504 0.26125,-0.145 0.56875,-0.29125 0.72,-0.425 0.30125,0.22375 1.21626,1.275001 1.74626,1.557501 0.36125,-0.27625 1.31125,-1.108751 1.72875,-1.501251 0.44125,-0.4375 -0.035,-0.716251 -0.4175,-0.3625 z m -2.39625,-6.901255 c 0.4975,-0.901251 1.2325,-2.360002 1.18375,-3.468753 -0.065,-1.365001 -0.9025,-3.390003 -2.90501,-4.056253 -2.5375,0.902501 -4.10625,2.905002 -4.175,5.273754 -0.0475,1.385001 1.13125,4.240003 3.56625,4.256253 0.74875,-0.721251 1.54125,-1.485001 2.33001,-2.005001 z m -1.54001,0.5375 c -0.47,-0.22875 -2.185,-1.551251 -2.5775,-2.563752 -0.51375,-1.365001 -0.51375,-2.873752 0.93875,-3.758753 1.13375,0.417501 2.45625,1.532501 2.575,2.557502 0.16125,1.328751 -0.22125,2.903752 -0.93625,3.765003 z m -0.0637,-10.555008 1.82376,-1.993751 c 0,0 -0.81126,-0.636251 -1.29126,-1.226251 0,-0.417501 0,-4.411254 0.17625,-4.626254 -1.3725,-1.223751 -2.37375,-1.377501 -2.965,-1.300001 -1.11125,0.1675 -2.2475,1.591252 -2.60875,2.068752 -0.26375,0.3775 -0.195,0.851251 0,1.027501 0.22125,0.18125 0.5075,0.36375 0.81,0.545 -0.05,-0.03125 -0.0975,-0.06125 -0.15,-0.08375 -0.52125,0.49 -1.2775,1.898751 -1.2525,2.853752 0.01,0.960001 0.875,2.353752 1.455,2.875002 0.64375,-0.4975 1.595,-1.330001 2.9925,-1.601251 0.15375,0.672501 0.475,1.080001 1.01,1.461251 z m -1.09875,-4.601253 c -0.89875,-0.321251 -2.67,-1.153751 -3.3125,-1.685002 -0.17125,-0.135 -0.1875,-0.2125 0.0212,-0.54625 0.40875,-0.6075 0.87375,-1.140001 1.2,-1.115001 0.27875,0 2.08125,0.963751 2.0225,1.471251 0.0637,0.358751 0.0737,1.116251 0.0687,1.875002 z m 0.0125,2.703752 c -0.4675,0.025 -0.87625,0.15 -1.475,0.43625 -0.49,-0.4 -1.765,-1.940001 -0.825,-3.661253 -0.13,-0.0775 -0.265,-0.14625 -0.39,-0.225 0.865,0.485001 1.87625,0.910001 2.6725,1.165001 -0.008,0.685001 -0.0275,1.302501 -0.0275,1.527501 -0.002,0.29125 0.02,0.527501 0.045,0.757501 z m -5.24375,-8.203756 c -0.43125,0 -3.315,0.06125 -3.38875,-0.1025 -0.21,-0.617501 -0.26375,-1.368751 0.23125,-2.413752 0.2475,-0.521251 -0.23125,-0.738751 -0.4175,-0.215 -0.18125,0.51125 -1.625,2.507502 -3.125006,3.150002 -0.77125,0.30375 0.940006,1.013751 0.822496,0.981251 -0.009,1.921251 0.26751,4.803753 0.67751,5.957504 0.25375,0.687501 1.03375,1.805001 1.57125,1.463751 0.34875,-0.21875 1.10125,-1.713751 1.34,-1.903751 0.41625,-0.33875 0.01,-0.915001 -0.33875,-0.568751 -0.38625,0.337501 -0.71375,-0.18875 -0.82,-0.54 -0.1275,-0.34125 -0.48,-4.567503 -0.30125,-4.648753 0,0 3.41,-0.413751 3.74875,-0.413751 0.2325,0 0.245,-0.74625 0,-0.74625 z m -9.366258,7.792505 1.408751,-1.831251 c -1.0225,-0.17625 -1.445001,-0.365 -2.157501,-1.177501 l 0.0275,-4.543753 -1.438751,-1.438751 -0.492501,0.05375 -2.257501,1.982501 c -0.2325,0.345001 0.37375,0.345001 0.675,-0.06625 l 1.638752,0.938751 0.0725,4.397503 c 0.125,0.525001 0.56,1.035001 1.21,1.685001 l 1.313751,0 z m -1.22,-10.087507 0.79125,-0.687501 0,-1.10375 -1.067501,-1.036251 -1.06,0.902501 0.025,1.272501 0.65625,0.6525 0.655001,0 z m -3.616253,-1.402501 c -0.605001,-0.0725 -2.607502,0.09625 -3.328753,0.21 -0.72375,0.11 -0.72375,0.46125 -0.12125,0.535 0.598751,0.06125 0.713751,0.187501 1.030001,0.995001 0.29,0.811251 -1.155001,4.493754 -1.515001,5.360004 -0.42125,-0.63125 -1.953751,-4.000003 -1.953751,-4.456253 0,-0.3275 0.67625,-0.656251 0.96625,-0.733751 0.566251,-0.175 0.553751,-0.56375 0.12625,-0.6475 -1.197501,-0.17 -5.417504,-0.541251 -6.162504,-0.633751 -0.538751,-0.04625 -0.783751,0.577501 -0.13125,0.577501 0.6775,0.01875 1.380001,-0.1825 2.117501,0.89875 0.852501,1.225001 3.526253,6.972506 4.163753,9.388757 0.315001,-0.5075 2.983753,-8.243756 3.137503,-9.062506 0.19125,-0.801251 0.75375,-1.582501 1.538751,-1.815002 0.8075,-0.2175 0.73375,-0.5625 0.1325,-0.61625 z M 79.55392,33.61247 c 0.035,3.217502 1.313751,3.490002 2.777502,4.332503 1.386251,0.783751 3.713752,0.62625 5.458754,0.165 0.66125,-0.1925 1.01875,-0.2325 0.9975,0.33875 0,0.356251 0.501251,0.280001 0.501251,0.01375 0,-0.2625 0.02375,-2.961252 0.02375,-3.258752 0,-0.3375 -0.487501,-0.2875 -0.487501,0 0,0.45 0,0.58375 -0.4425,1.226251 -1.202501,1.776251 -4.206253,1.705001 -5.815004,-0.467501 -0.551251,-0.74 -1.052501,-1.728751 -0.413751,-1.916251 0.632501,-0.19375 2.566252,0.2075 3.843753,0.315 0.767501,0.05 2.533752,0.23 2.756252,0.357501 0.19625,0.1475 0.495001,0.3325 0.495001,-0.0525 0.0175,-0.377501 0.0175,-1.617502 0.0175,-2.001252 0,-0.37125 -0.288751,-0.1925 -0.505001,-0.06125 -0.21875,0.1525 -2.102501,0.4675 -2.857502,0.6 -0.76,0.141251 -3.096252,0.328751 -3.712502,0.120001 -0.628751,-0.208751 -0.420001,-1.471252 0.14,-2.193752 1.628751,-2.155002 4.918753,-2.005002 6.108754,-0.2125 0.40875,0.62375 0.40875,0.77125 0.40875,1.240001 0,0.28125 0.472501,0.315 0.472501,0 0.0275,-0.305001 0.03875,-3.561253 0.03875,-3.822503 0,-0.25375 -0.476251,-0.34625 -0.476251,0 0,0.2375 -0.52375,0.37625 -1.04,0.2375 -1.021251,-0.32125 -3.998753,0.13875 -5.326254,0.866251 -1.177501,0.6725 -2.988752,2.225001 -2.963752,4.173753 z m 0.56875,5.710004 c 0.03625,0.913751 0.37125,8.783756 0.27125,9.876257 -0.06125,0.625001 0.775001,1.286251 1.540001,1.807501 0.371251,-0.45 1.180001,-1.626251 1.848752,-2.121251 0.39375,-0.3225 0.12125,-0.535 -0.18375,-0.415 -0.601251,0.28 -1.208751,0.06125 -1.267501,-0.635001 -0.05625,-0.6975 -0.05625,-7.468755 0,-8.446256 -0.465001,0 -1.773752,-0.025 -2.208752,-0.06625 z m 6.491255,6.432505 c -0.522501,0.4925 -1.455001,1.771251 -1.433751,2.715002 0.01375,0.965 0.47875,1.893751 1.0375,2.415001 0.955001,-0.6675 1.552502,-1.583751 3.140003,-2.196251 0.19625,0.74125 0.71875,0.855 1.337501,1.321251 0.37125,-0.403751 1.721251,-2.062502 2.017501,-2.351252 0.3,-0.28375 0.12875,-0.57625 -0.29625,-0.28375 -0.42625,0.28375 -0.717501,0.10875 -1.428751,-0.655001 0.02625,-0.41375 -0.0475,-3.797502 0.1175,-3.986253 -0.64875,-0.6975 -1.243751,-1.647501 -2.010001,-1.576251 -1.111251,0.0925 -2.527502,2.032502 -2.877503,2.536252 -0.28,0.3625 0.0125,1.752501 0.221251,1.926252 0.075,0.06875 0.11125,0.075 0.175,0.135 z m 0.7775,0.565 c 0.621251,0.34625 0.933751,0.1325 1.897502,0.0275 -0.005,0.6075 -0.02,1.153751 -0.0225,1.445001 -0.425001,0.30375 -0.947501,0.570001 -1.548751,0.866251 -0.476251,-0.393751 -1.175001,-0.727501 -0.326251,-2.338752 z m -0.5075,-2.791252 c 0.405,-0.61875 0.66,-0.738751 0.983751,-0.738751 0.2925,0.0175 1.421251,0.793751 1.362501,1.316251 0.055,0.340001 0.0675,1.047501 0.06375,1.770002 -0.845001,0.1025 -1.440001,0.19875 -2.387502,-0.600001 -0.175,-0.14125 -0.22375,-1.425001 -0.0225,-1.747501 z m 6.813755,-1.248751 c -0.720001,0.35875 0.961251,1.025001 0.848751,0.995001 -0.0225,1.905001 -0.407501,5.020003 0.2475,6.008754 0.4025,0.605001 1.325001,1.001251 1.941251,0.763751 0.591251,-0.23625 1.347501,-1.418751 1.571251,-1.612501 0.440001,-0.328751 0.065,-0.678751 -0.3025,-0.338751 -0.36125,0.338751 -1.346251,0.0975 -1.478751,-0.245 -0.1025,-0.3575 -0.22875,-4.515003 -0.05625,-4.598753 0,0 1.187501,-0.025 1.502501,-0.015 0.25,0 0.26625,-0.755001 0.0225,-0.755001 -0.4325,-0.0075 -1.388751,-0.0925 -1.445001,-0.26375 -0.1425,-0.39125 0.03375,-1.658751 0.28,-2.172502 0.2525,-0.52 -0.23,-0.7475 -0.4225,-0.24 -0.195,0.540001 -1.441251,1.850002 -2.708752,2.473752 z m 0.34625,-8.652506 c 0.07125,1.801251 -0.865,3.693753 -1.886251,4.548753 1.763751,-0.4575 1.993751,-1.508751 2.958752,-2.747502 0.5325,0.788751 1.523751,1.740001 2.247502,2.152502 0.50875,-0.337501 1.951251,-1.956252 2.267501,-2.290002 -1.04,-0.27875 -3.048752,-1.341251 -3.548752,-2.462502 -0.395001,-0.83125 -0.301251,-1.225001 0.0925,-1.880001 0.35,0.46125 2.792502,1.583751 3.891248,-0.29 -1.201246,-0.437501 -2.282497,-1.225001 -2.647497,-1.861252 -0.322501,0.2675 -1.396251,1.437501 -2.000002,1.807502 -0.14,-0.643751 -1.127501,-1.336251 -1.927501,-1.480002 -0.26,0.278751 -2.143752,1.715002 -3.003752,2.133752 -0.265001,0.1275 -0.165001,0.703751 0.20625,0.5575 0.35125,-0.1525 0.9325,-0.595 1.606251,-0.915 0.780001,0.3025 1.663751,1.096251 1.743751,2.726252 z m 8.44126,0.29125 c 0.21625,-1.091251 0.9825,-1.538751 1.335,-1.867501 0.4975,0.5525 0.9975,1.17625 1.74625,1.17625 0.73125,0.0063 1.49125,-0.3325 1.7275,-0.635 -0.60375,-0.48625 -1.97875,-1.933751 -2.255,-2.206252 -0.69625,0.386251 -3.72,1.956252 -3.97625,3.770003 -0.36875,2.673752 0.47875,3.207503 1.6525,4.676254 0.66,0.83375 1.76625,0.8725 2.2675,0.74375 0.5425,-0.37625 2.5225,-2.255001 2.7425,-2.491252 0.19875,-0.23125 -0.0888,-0.4425 -0.335,-0.20625 -0.24625,0.22375 -0.15,0.32125 -0.4775,0.37 -0.33625,0.05375 -1.68375,0.280001 -2.4675,-0.12875 -0.9775,-0.51375 -2.25375,-1.722501 -1.96,-3.201252 z m -1.47875,8.537506 c -0.44625,0.453751 -1.226256,0.976251 -1.957506,1.787502 0.605,0.0425 1.107496,0.1725 1.398746,0.7525 0.29876,0.576251 0.0463,3.002502 0.0887,3.937503 0.0475,0.907501 0.59751,1.100001 1.31751,1.852501 0.71875,-0.1825 2.7225,-1.02 3.39875,-1.483751 -0.0613,0.745001 0.88125,1.582501 1.4375,1.745002 0.3725,-0.406251 0.77875,-0.628751 1.3275,-1.138751 -0.535,-0.357501 -0.465,-0.406251 -0.66625,-1.116251 -0.15625,-0.685001 0.0388,-3.278753 0.0575,-4.390003 -0.425,-0.642501 -1.12125,-1.412501 -1.83375,-1.946252 -0.50375,0.458751 -1.1825,1.072501 -1.9775,1.910002 0.5925,-0.08 1.75875,0.1575 1.815,0.65625 0.0337,0.642501 0.13125,2.047502 0,3.138752 -0.13375,1.100001 -3.09375,0.595001 -3.1325,-0.145 -0.0663,-0.7625 0.15125,-2.952502 0.16625,-3.988753 -0.41875,-0.6425 -0.66625,-0.995 -1.44,-1.571251 z m -19.648769,26.62377 0,-0.10875 c -1.711251,-0.246251 -3.052502,-1.442501 -4.618753,-2.035002 -2.165002,-0.81875 -4.461254,0.852501 -4.461254,1.117501 0,0.58375 0.615001,0.882501 2.366252,-0.22 -1.371251,1.590001 0.1875,2.881252 0.1875,2.881252 -0.57,-0.085 -1.385001,-0.275 -1.905001,-0.575 -0.10625,0.575 0.685,0.78375 1.06125,1.035 2.905003,1.192501 4.816254,-1.602501 7.370006,-2.095001 z m -4.895004,1.476251 c 0,0 0.771251,-0.835001 0.768751,-1.432501 -0.0025,-0.811251 -0.766251,-1.402501 -0.766251,-1.402501 0.657501,0.18875 2.215002,1.066251 2.773752,1.433751 l -2.776252,1.401251 z M 60.538906,48.522481 61.372656,47.59998 c -0.93875,-0.17375 -0.50125,-0.165 -0.997501,-0.62125 l -0.02875,-3.817503 -1.22,-1.790002 -0.462501,0.065 -1.911251,1.785002 c -0.506251,0.4425 -0.06,0.655 0.52875,0.16625 l 1.263751,0.65375 0.03125,4.043753 c 0.10625,0.500001 0.550001,0.615001 1.165001,1.248751 l 0.797501,-0.81125 z m 0.415,-13.28751 c 0.64625,1.832501 2.165001,2.410002 3.297502,2.500002 0.336251,-0.626251 0.962501,-1.580001 1.306251,-2.023752 0.510001,-0.67625 -0.01,-1.082501 -0.36625,-0.30375 -0.27375,0.600001 -1.743751,-0.055 -2.277502,-0.5675 -0.715,-0.666251 -1.160001,-2.413752 -0.59,-3.028753 0.57625,-0.62 1.402501,-0.33625 2.467502,-0.36625 0.7025,-0.035 0.8525,-0.6825 0.97125,-1.012501 -0.33875,-0.16 -0.845,-0.4475 -1.511251,-0.84875 -0.68625,0.43625 -1.745001,1.336251 -2.202501,1.715001 -0.571251,0.4825 -1.740002,2.150002 -1.095001,3.936253 z m 2.758752,10.092507 c -0.692501,0.712501 -1.206251,1.500001 -1.197501,2.491252 0.035,0.942501 0.34875,1.881252 1.308751,2.306252 0.848751,-0.626251 1.942501,-1.386251 2.996252,-1.583751 0.516251,0.62 1.310001,1.03375 1.785002,1.408751 0.33,-0.398751 1.381251,-1.252501 1.672501,-1.517501 0.27625,-0.282501 0,-0.677501 -0.29125,-0.306251 -0.223751,0.341251 -0.965001,0.09375 -1.176251,-0.255 0,-0.40125 -0.385001,-4.642503 -0.215,-4.838753 -0.611251,-0.682501 -1.666252,-2.221252 -2.376252,-2.145002 -1.032501,0.10625 -2.577502,1.582501 -2.910002,2.065002 -0.252501,0.3625 0.075,2.108751 0.27375,2.275001 0.05375,0.03875 0.08,0.0525 0.13,0.1 z m 2.716252,0.365001 c -0.780001,0.01625 -1.450001,-0.223751 -2.301252,-0.972501 -0.16125,-0.13625 -0.31375,-1.103751 -0.12875,-1.420001 0.37375,-0.595001 0.37375,-0.780001 0.700001,-0.773751 0.25375,0 1.823751,0.948751 1.741251,1.455001 0.06,0.361251 0.03,1.043751 -0.01125,1.711252 z m -2.063752,0.14125 c 0.715001,0.48125 1.125001,0.41875 2.026252,0.33 -0.0375,0.48875 -0.07125,0.937501 -0.07125,1.137501 0,0.21625 0.08875,0.3875 0.15,0.57 -0.46625,0.16625 -1.060001,0.26625 -1.517501,0.495001 -0.415,-0.365001 -1.940002,-1.407501 -0.587501,-2.532502 z m 5.881255,-7.865006 0.85375,-0.918751 c -0.9575,-0.1825 -0.9575,-0.1175 -1.467501,-0.57625 l 0.0375,-4.420003 -0.835,-1.232501 -0.446251,0.05875 -1.922501,1.773751 c -0.5175,0.46375 -0.05375,0.68375 0.5225,0.17125 l 0.992501,0.606251 0.03625,4.162503 c 0.10125,0.49875 0.53875,0.67 1.151251,1.301251 l 1.077501,-0.926251 z M 68.745162,22.498712 c -0.396251,-0.02375 -0.995001,0.7 1.315001,0.9375 0.35875,0.04125 0.84,-0.80625 -1.315001,-0.9375 z m 0.0275,-1.381251 c -0.382501,-0.02125 -0.980001,1.03125 1.325001,0.945 0.36,-0.01375 0.6275,-0.83375 -1.325001,-0.945 z m 0.4425,6.945005 -0.988751,-1.025001 -0.995,0.895001 0.01875,1.2325 0.60875,0.623751 0.6175,0 0.738751,-0.667501 0,-1.05875 z M 67.20266,18.602459 c -0.6725,-0.460001 -1.403751,-1.578751 -3.025002,-1.651252 -1.630001,-0.065 -3.468752,1.407501 -4.066253,2.333752 -0.79375,1.225001 0.17875,2.300002 1.215001,3.095002 -0.6625,0.567501 -1.583751,1.442502 -2.436252,2.240002 0.341251,0.37125 2.207502,1.252501 3.255003,1.227501 1.582501,-0.035 3.046252,-0.851251 3.948753,-1.576251 1.647501,-1.302501 1.075,-2.686252 -0.600001,-3.665003 -0.16,-0.09625 -0.315,-0.12375 -0.47375,-0.155 1.040001,-0.823751 1.947501,-1.558751 2.182501,-1.848751 z m -4.161253,3.410002 c 0.550001,0.24875 1.110001,0.497501 1.721252,0.857501 0.88375,0.5 0.42875,1.451251 -0.522501,1.890001 -0.9675,0.445001 -2.700002,-0.80625 -2.968752,-1.318751 0.35375,-0.3075 1.021251,-0.83625 1.770001,-1.428751 z m 1.746252,-2.325002 c -0.14625,0.117501 -0.561251,0.453751 -1.010001,0.812501 -0.265,0.04625 -0.5325,0.07625 -0.808751,0.0425 -0.82875,-0.11875 -1.228751,-0.74375 -1.611251,-1.246251 -0.39375,-0.52375 0.625001,-0.958751 1.126251,-0.90625 0.50875,0.07 1.632501,0.6725 2.303752,1.2975 z m -6.818755,3.588753 c -2.423752,0.611251 -3.557503,-1.331251 -3.800003,-1.851251 0.980001,-1.001251 2.645002,-2.640002 3.660003,-3.472503 -0.670001,-0.61875 -0.947501,-1.642501 -2.138752,-1.730001 -1.038751,0.02875 -3.461253,1.205001 -3.886253,4.282503 -0.4075,2.953752 2.365002,4.550003 4.562504,4.638753 0.7325,0 1.646251,-0.9475 2.100001,-1.17125 0.973751,-0.477501 0.612501,-0.950001 -0.4975,-0.696251 z M 53.992651,20.84246 c -0.611251,-1.968751 -0.38125,-2.646252 0.84125,-3.618752 0.275001,0.6775 0.976251,1.166251 1.367501,1.401251 -0.69,0.67125 -1.762501,1.887501 -2.208751,2.217501 z m -2.801252,-1.752501 c 0.41375,-0.40625 -0.0275,-0.70125 -0.396251,-0.3475 -0.27375,-0.3275 -0.97375,-1.050001 -1.348751,-1.491251 -0.3975,0.33125 -1.310001,0.87875 -1.818751,1.163751 -0.39875,-0.456251 -0.890001,-0.456251 -1.687501,-1.081251 -0.44125,0.33875 -1.418751,1.055001 -1.945002,1.692501 0.927501,0.27 1.627502,0.32375 1.685002,1.120001 0.035,0.64875 -0.0675,4.637503 -0.0125,5.368754 0.49625,0.10875 1.10375,0.06 1.807501,0.02375 0.05625,-0.571251 0.02875,-5.575004 0.02875,-6.130005 0.2675,-0.14875 0.54125,-0.29375 0.673751,-0.4175 0.2925,0.22375 0.87125,1.067501 1.33875,1.345001 0.358751,-0.26625 1.278751,-0.848751 1.675002,-1.246251 z m -7.652506,10.335008 c -1.052501,0.095 -2.573752,1.326251 -3.027502,2.386251 -0.1825,0.423751 0.0775,1.951252 0.27125,2.120002 0.1375,0.12 0.24625,0.20375 0.36625,0.2975 -0.69125,0.642501 -1.340001,1.190001 -1.320001,2.145002 0.02875,0.92 0.760001,1.737501 1.703752,2.167501 0.50625,-0.77 1.296251,-1.242501 2.140001,-1.441251 0.07,0.735001 0.24125,1.272501 0.722501,1.642502 0.34625,-0.383751 1.731251,-1.580002 1.998751,-1.851252 0.29375,-0.275 0.07375,-0.6075 -0.2675,-0.275 -0.2025,0.1875 -0.698751,-0.09125 -0.843751,-0.3325 0,-0.401251 0,-4.633754 0.177501,-4.825004 -0.626251,-0.67875 -1.221251,-2.110001 -1.921252,-2.033751 z m 0.0825,4.296253 c -1.173751,0.76 -1.547501,0.735 -2.356252,-0.17625 -0.40125,-0.466251 -0.365,-1.343751 -0.18,-1.675002 0.365001,-0.5725 1.003751,-1.15 1.308751,-1.14375 0.26375,0.0175 1.210001,1.1675 1.145001,1.668751 0.04875,0.2775 0.06875,0.78875 0.0825,1.326251 z m 0.0125,2.116251 c -0.0075,0.228751 0,0.423751 0.0037,0.630001 -0.2275,0.0575 -0.4825,0.11125 -0.79875,0.27125 -0.431251,-0.365 -2.470002,-1.032501 -1.133751,-2.110002 0.82,0.482501 1.136251,0.106251 1.928751,-0.38375 0.005,0.690001 0,1.343751 0,1.592501 z m -0.91625,-8.961256 c -0.142501,-0.1825 -0.415001,-0.476251 -0.427501,-0.846251 0,-0.24375 0.03,-2.796252 0.03,-3.113752 0,-0.30125 -0.6025,-0.26875 -0.6025,0 -0.0275,0.45375 0.04,1.226251 -0.365001,1.852501 -1.12,1.731251 -3.251252,2.445002 -4.750003,0.32125 -0.51,-0.705 -0.63125,-1.772501 -0.695001,-2.533751 -0.10125,-1.017501 0.670001,-2.332502 0.713751,-2.452502 1.907501,-2.498752 4.552503,-0.642501 4.767504,0.3725 0.14125,0.677501 0.29375,1.507501 0.29375,1.943751 -0.0175,0.290001 0.6075,0.260001 0.62,-0.04 0,-0.31125 0.0175,-4.151253 0.0175,-4.420003 0.01125,-0.24875 -0.50375,-0.33 -0.515,0 -0.0275,0.607501 -0.38625,0.660001 -0.851251,0.510001 -0.965001,-0.287501 -3.103752,-0.746251 -4.346253,-0.0325 -1.093751,0.64375 -2.770002,2.151251 -2.740002,4.047503 0.03375,3.120002 1.211251,3.382502 2.578752,4.222503 1.281251,0.75375 3.052502,0.26625 4.670003,-0.201251 0.641251,-0.175 0.720001,0.230001 1.028751,0.685001 0.5225,0.7 0.946251,0.2525 0.572501,-0.315 z m -8.648757,4.410003 c -1.078751,1.652501 -1.671251,4.257503 0.2,5.781254 0.881251,0.736251 1.611251,1.310001 3.407503,0.990001 0.35625,-0.7125 0.51625,-0.948751 1.147501,-1.772501 -1.238751,0.2 -2.195002,-0.02375 -3.098753,-0.707501 -1.862501,-1.445001 -1.286251,-3.771253 -0.73625,-4.566253 1.003751,-1.491251 2.432502,0.64 2.687502,0.931251 0.33125,-0.397501 0.905,-0.963751 1.465001,-1.403752 -0.555001,-0.73375 -1.008751,-1.413751 -1.385001,-1.856251 -1.191251,0.42875 -2.940002,1.496251 -3.687503,2.603752 z m 0.770001,14.276261 c -0.398751,2.970002 2.401251,4.737503 3.747502,5.308753 0.338751,-0.6825 1.026251,-1.790001 1.701252,-2.566252 0.5125,-0.5975 -0.0525,-0.75625 -0.512501,-0.29625 -0.62,0.677501 -2.470001,0.03375 -2.960002,-0.86 0.892501,-0.673751 3.223753,-2.622502 4.237503,-3.453753 -0.66875,-0.6275 -1.705001,-2.188751 -1.865001,-3.085002 -0.903751,0.60875 -3.893753,1.865001 -4.348753,4.952504 z m 2.892502,-3.217503 c 0.27,0.687501 1.130001,1.997502 1.518751,2.227502 -0.668751,0.67125 -2.311252,1.785001 -2.772502,2.110001 -0.841251,-1.055 -1.295001,-2.777502 1.253751,-4.337503 z m 6.123754,-1.078751 c -0.58125,0.548751 -1.03875,1.048751 -1.887501,1.720002 0.395,0.45375 1.063751,1.025 1.123751,1.805001 0.05125,0.787501 0.02125,4.442503 0.07,5.357504 0.62125,0 0.51125,0.065 1.578751,0.02375 -0.105,-0.620001 -0.01625,-5.363754 -0.01625,-6.043755 0.40125,-0.38125 0.4575,-0.44125 0.917501,-0.7825 0.33,0.28875 1.1025,0.46 1.1025,0.967501 0,0.51125 0.153751,2.762502 -0.0275,3.595002 -0.22375,1.015001 -0.12375,1.745001 0.423751,2.770002 0.41625,-0.465 1.970001,-1.551251 2.306251,-1.822501 0.332501,-0.2875 0.160001,-0.50375 -0.27,-0.3875 -0.46,0.1 -0.54125,0.18875 -0.54125,-0.1025 0,-0.546251 -0.2175,-3.017503 -0.25,-4.595004 -0.05625,-1.581251 -0.828751,-2.047501 -1.272501,-2.265001 -0.453751,0.50375 -1.463751,1.13875 -2.070002,1.652501 -0.45625,-0.33625 -0.68125,-1.092501 -1.187501,-1.892502 z m 6.365005,-3.826252 c 0.5325,-0.426251 0.925001,-1.143751 1.143751,-1.313751 0.41,-0.337501 0.0725,-0.683751 -0.27375,-0.360001 -0.276251,0.272501 -1.001251,-0.35875 -1.033751,-0.40125 -0.235,-0.27625 -0.580001,-3.896253 -0.41875,-3.977503 0,0 2.302501,-0.28375 2.605002,-0.27875 0.22875,0.01625 0.25875,-0.717501 0.0125,-0.730001 -0.375001,0 -2.131252,0.242501 -2.193752,0.07 -0.09625,-0.3825 -0.33375,-1.672501 0.24375,-2.781252 0.27125,-0.4825 -0.0087,-0.95 -0.18875,-0.45625 -0.20375,0.50375 -1.646251,2.742502 -2.578752,3.110002 -0.761251,0.3125 -0.675,0.488751 -0.185,0.612501 0.38875,0.07625 0.7925,0.54125 0.7175,0.535 -0.07625,1.857501 -0.25875,4.150003 0.318751,5.122504 0.3675,0.61375 1.375001,1.250001 1.831251,0.84875 z m 7.910006,0.82375 c -0.285,0.561251 -0.743751,1.073751 -1.581251,1.456251 0.50875,0.443751 1.173751,1.016251 1.611251,1.303751 0.50375,-0.56 0.966251,-1.078751 1.546251,-1.627501 -0.575,-0.1125 -1.240001,-0.4 -1.576251,-1.132501 z m -3.625003,-2.050001 c 0.731251,-0.06 1.908752,0.37875 3.217503,0.27125 1.555001,-0.11125 2.775002,-2.521252 2.103751,-4.396253 -0.62625,-1.780002 -2.610002,-1.467501 -3.947503,-1.892502 -1.227501,-0.335 -1.736251,-1.107501 -0.39625,-1.987501 1.575001,-1.017501 3.530002,0.61375 3.717503,0.9575 0.28875,0.518751 0.53,0.510001 0.53,-0.165 0.04125,-1.473751 -0.09375,-0.64 -0.24125,-2.027501 -0.04875,-0.496251 -0.41,-0.538751 -0.44375,-0.0625 -0.0325,0.485 -0.622501,0.33625 -1.066251,0.33625 -0.451251,-0.0087 -1.766252,-0.21 -2.901252,0.42 -0.722501,0.420001 -2.373752,1.715002 -1.448751,3.266253 0.54,0.90625 3.712502,1.642501 4.501253,2.163751 0.79375,0.517501 0.972501,1.850002 0.21375,2.461252 -0.943751,0.748751 -3.508753,0.11875 -3.905003,-0.33625 -0.52,-0.575 -0.7175,-1.048751 -0.8275,-1.715001 -0.108751,-0.682501 -0.682501,-0.623751 -0.682501,0 0,0.62125 0.14625,2.753752 0.26,3.253752 0.1025,0.52125 0.622501,0.34875 0.671251,-0.04625 0.05875,-0.36625 0.30375,-0.4725 0.645,-0.50125 z m -3.325002,6.648755 c -0.603751,0.4525 0.71125,1.085 0.59375,1.05 0.0475,1.862502 -0.2225,3.776253 0.41125,4.722504 0.401251,0.5875 1.651252,1.01875 1.867502,0.45625 0.21,-0.5675 1.157501,-1.723751 1.370001,-1.920001 0.39375,-0.347501 0.04625,-0.666251 -0.285,-0.323751 -0.686251,0.726251 -1.068751,0.391251 -1.572502,-0.09 -0.24375,-0.27625 -0.33625,-2.881252 -0.16,-2.958752 0,0 1.257501,-0.1825 1.558752,-0.1825 0.23375,0 0.215,-0.72375 -0.03125,-0.72375 -0.3775,0 -1.498751,0.01 -1.563751,-0.166251 -0.14,-0.36 0.22375,-2.116251 0.287501,-2.903752 0.05125,-0.55625 -0.247502,-0.7325 -0.397502,-0.21375 -0.16125,0.507501 -1.367501,2.736252 -2.078751,3.253753 z"
     id="path2885"
     style="fill:#ffffff;fill-opacity:1;fill-rule:nonzero;stroke:none" /></svg>