<svg version="1.1" xmlns="http://www.w3.org/2000/svg" xmlns:xlink="http://www.w3.org/1999/xlink" width="1910" height="220"><defs></defs><g transform="translate(0,0)"><g><rect fill="#FFFFFF" stroke="none" x="0" y="0" width="1910" height="220"></rect></g><g transform="translate(0,0) matrix(1,0,0,1,30,170)"><g><g transform="translate(0,0) scale(1.5,0.3)"><g><path fill="none" stroke="none" d="M 10 0 L 90 0 Q 100 0 100 10 L 100 90 Q 100 100 90 100 L 10 100 Q 0 100 0 90 L 0 10 Q 0 0 10 0 Z"></path><g transform="scale(0.6666666666666666,3.3333333333333335)"><path fill="#9fc5e8" stroke="rgb(0,0,0)" d="M 10 0 L 140 0 Q 150 0 150 10 L 150 20 Q 150 30 140 30 L 10 30 Q 0 30 0 20 L 0 10 Q 0 0 10 0 Z" stroke-opacity="0" stroke-miterlimit="10" stroke-width="0"></path></g></g></g></g></g><g transform="scale(1,1) matrix(1,0,0,1,33,170) translate(2,8)"><text fill="#000000" stroke="none" font-family="Arial" font-size="12px" font-style="normal" font-weight="normal" text-decoration="none" x="39.5" y="11">Application</text></g><g transform="translate(0,0) matrix(1,0,0,1,220,170)"><g><g transform="translate(0,0) scale(1.5,0.3)"><g><path fill="none" stroke="none" d="M 10 0 L 90 0 Q 100 0 100 10 L 100 90 Q 100 100 90 100 L 10 100 Q 0 100 0 90 L 0 10 Q 0 0 10 0 Z"></path><g transform="scale(0.6666666666666666,3.3333333333333335)"><path fill="#cccccc" stroke="rgb(0,0,0)" d="M 10 0 L 140 0 Q 150 0 150 10 L 150 20 Q 150 30 140 30 L 10 30 Q 0 30 0 20 L 0 10 Q 0 0 10 0 Z" stroke-opacity="0" stroke-miterlimit="10" stroke-width="0"></path></g></g></g></g></g><g transform="scale(1,1) matrix(1,0,0,1,223,170) translate(2,8)"><text fill="#000000" stroke="none" font-family="Arial" font-size="12px" font-style="normal" font-weight="normal" text-decoration="none" x="18.5" y="11">Contact Reviewers</text></g><g transform="translate(0,0) matrix(1,0,0,1,410,170)"><g><g transform="translate(0,0) scale(1.5,0.3)"><g><path fill="none" stroke="none" d="M 10 0 L 90 0 Q 100 0 100 10 L 100 90 Q 100 100 90 100 L 10 100 Q 0 100 0 90 L 0 10 Q 0 0 10 0 Z"></path><g transform="scale(0.6666666666666666,3.3333333333333335)"><path fill="#9fc5e8" stroke="rgb(0,0,0)" d="M 10 0 L 140 0 Q 150 0 150 10 L 150 20 Q 150 30 140 30 L 10 30 Q 0 30 0 20 L 0 10 Q 0 0 10 0 Z" stroke-opacity="0" stroke-miterlimit="10" stroke-width="0"></path></g></g></g></g></g><g transform="scale(1,1) matrix(1,0,0,1,413,170) translate(2,8)"><text fill="#000000" stroke="none" font-family="Arial" font-size="12px" font-style="normal" font-weight="normal" text-decoration="none" x="45.5" y="11">Approval</text></g><g transform="translate(0,0) matrix(1,0,0,1,600,170)"><g><g transform="translate(0,0) scale(1.5,0.3)"><g><path fill="none" stroke="none" d="M 10 0 L 90 0 Q 100 0 100 10 L 100 90 Q 100 100 90 100 L 10 100 Q 0 100 0 90 L 0 10 Q 0 0 10 0 Z"></path><g transform="scale(0.6666666666666666,3.3333333333333335)"><path fill="#9fc5e8" stroke="rgb(0,0,0)" d="M 10 0 L 140 0 Q 150 0 150 10 L 150 20 Q 150 30 140 30 L 10 30 Q 0 30 0 20 L 0 10 Q 0 0 10 0 Z" stroke-opacity="0" stroke-miterlimit="10" stroke-width="0"></path></g></g></g></g></g><g transform="scale(1,1) matrix(1,0,0,1,603,170) translate(2,8)"><text fill="#000000" stroke="none" font-family="Arial" font-size="12px" font-style="normal" font-weight="normal" text-decoration="none" x="25.5" y="11">External Review</text></g><g transform="translate(0,0) matrix(1,0,0,1,1360,170)"><g><g transform="translate(0,0) scale(1.5,0.3)"><g><path fill="none" stroke="none" d="M 10 0 L 90 0 Q 100 0 100 10 L 100 90 Q 100 100 90 100 L 10 100 Q 0 100 0 90 L 0 10 Q 0 0 10 0 Z"></path><g transform="scale(0.6666666666666666,3.3333333333333335)"><path fill="#9fc5e8" stroke="rgb(0,0,0)" d="M 10 0 L 140 0 Q 150 0 150 10 L 150 20 Q 150 30 140 30 L 10 30 Q 0 30 0 20 L 0 10 Q 0 0 10 0 Z" stroke-opacity="0" stroke-miterlimit="10" stroke-width="0"></path></g></g></g></g></g><g transform="scale(1,1) matrix(1,0,0,1,1363,170) translate(2,8)"><text fill="#000000" stroke="none" font-family="Arial" font-size="12px" font-style="normal" font-weight="normal" text-decoration="none" x="27" y="11">Funds Awarded</text></g><g transform="translate(0,0) matrix(1,0,0,1,1550,170)"><g><g transform="translate(0,0) scale(1.5,0.3)"><g><path fill="none" stroke="none" d="M 10 0 L 90 0 Q 100 0 100 10 L 100 90 Q 100 100 90 100 L 10 100 Q 0 100 0 90 L 0 10 Q 0 0 10 0 Z"></path><g transform="scale(0.6666666666666666,3.3333333333333335)"><path fill="#9fc5e8" stroke="rgb(0,0,0)" d="M 10 0 L 140 0 Q 150 0 150 10 L 150 20 Q 150 30 140 30 L 10 30 Q 0 30 0 20 L 0 10 Q 0 0 10 0 Z" stroke-opacity="0" stroke-miterlimit="10" stroke-width="0"></path></g></g></g></g></g><g transform="scale(1,1) matrix(1,0,0,1,1553,170) translate(2,8)"><text fill="#000000" stroke="none" font-family="Arial" font-size="12px" font-style="normal" font-weight="normal" text-decoration="none" x="22.5" y="11">Progress Reports</text></g><g transform="translate(0,0) matrix(1,0,0,1,1740,170)"><g><g transform="translate(0,0) scale(1.5,0.3)"><g><path fill="none" stroke="none" d="M 10 0 L 90 0 Q 100 0 100 10 L 100 90 Q 100 100 90 100 L 10 100 Q 0 100 0 90 L 0 10 Q 0 0 10 0 Z"></path><g transform="scale(0.6666666666666666,3.3333333333333335)"><path fill="#9fc5e8" stroke="rgb(0,0,0)" d="M 10 0 L 140 0 Q 150 0 150 10 L 150 20 Q 150 30 140 30 L 10 30 Q 0 30 0 20 L 0 10 Q 0 0 10 0 Z" stroke-opacity="0" stroke-miterlimit="10" stroke-width="0"></path></g></g></g></g></g><g transform="scale(1,1) matrix(1,0,0,1,1743,170) translate(2,8)"><text fill="#000000" stroke="none" font-family="Arial" font-size="12px" font-style="normal" font-weight="normal" text-decoration="none" x="36.5" y="11">Final Report</text></g><g transform="translate(0,0) matrix(1,0,0,1,600,120)"><g><g transform="translate(0,0) scale(1.5,0.3)"><g><path fill="none" stroke="none" d="M 10 0 L 90 0 Q 100 0 100 10 L 100 90 Q 100 100 90 100 L 10 100 Q 0 100 0 90 L 0 10 Q 0 0 10 0 Z"></path><g transform="scale(0.6666666666666666,3.3333333333333335)"><path fill="#dd7e6b" stroke="rgb(0,0,0)" d="M 10 0 L 140 0 Q 150 0 150 10 L 150 20 Q 150 30 140 30 L 10 30 Q 0 30 0 20 L 0 10 Q 0 0 10 0 Z" stroke-opacity="0" stroke-miterlimit="10" stroke-width="0"></path></g></g></g></g></g><g transform="scale(1,1) matrix(1,0,0,1,603,120) translate(2,8)"><text fill="#000000" stroke="none" font-family="Arial" font-size="12px" font-style="normal" font-weight="normal" text-decoration="none" x="45.5" y="11">Rejected</text></g><g transform="matrix(1,0,0,1,555.5,130.5)"><g transform="translate(0,0)"><g transform="translate(-576,-185) translate(20.5,54.5) matrix(1,0,0,1,0,0)"><g><path fill="none" stroke="#666666" d="M 560 185 L 570 185 Q 580 185 580 175 L 580 145 Q 580 135 590 135 L 600 135" stroke-miterlimit="10" stroke-width="2"></path></g></g></g></g><g transform="matrix(1,0,0,1,175.5,180.5)"><g transform="translate(0,0)"><g transform="translate(-182,-136) translate(6.5,-44.5) matrix(1,0,0,1,0,0)"><g><path fill="none" stroke="#666666" d="M 180 185 L 186.66666666666669 185 Q 193.33333333333334 185 200 185 L 200 185 Q 206.66666666666666 185 213.33333333333331 185 L 220 185" stroke-miterlimit="10" stroke-width="2"></path></g></g></g></g><g transform="matrix(1,0,0,1,365.5,180.5)"><g transform="translate(0,0)"><g transform="translate(-369,-136) translate(3.5,-44.5) matrix(1,0,0,1,0,0)"><g><path fill="none" stroke="#666666" d="M 370 185 L 376.66666666666663 185 Q 383.3333333333333 185 390 185 L 390 185 Q 396.6666666666667 185 403.33333333333337 185 L 410 185" stroke-miterlimit="10" stroke-width="2"></path></g></g></g></g><g transform="matrix(1,0,0,1,555.5,180.5)"><g transform="translate(0,0)"><g transform="translate(-560,-186) translate(4.5,5.5) matrix(1,0,0,1,0,0)"><g><path fill="none" stroke="#666666" d="M 560 185 L 566.6666666666667 185 Q 573.3333333333334 185 580 185 L 580 185 Q 586.6666666666666 185 593.3333333333333 185 L 600 185" stroke-miterlimit="10" stroke-width="2"></path></g></g></g></g><g transform="matrix(1,0,0,1,745.5,180.5)"><g transform="translate(0,0)"><g transform="translate(-751,-186) translate(5.5,5.5) matrix(1,0,0,1,0,0)"><g><path fill="none" stroke="#666666" d="M 750 185 L 943.3333333333333 185 Q 953.3333333333333 185 963.3333333333333 185 L 1146.6666666666667 185 Q 1156.6666666666667 185 1166.6666666666667 185 L 1360 185" stroke-miterlimit="10" stroke-width="2"></path></g></g></g></g><g transform="matrix(1,0,0,1,1505.5,180.5)"><g transform="translate(0,0)"><g transform="translate(-1510,-182) translate(4.5,1.5) matrix(1,0,0,1,0,0)"><g><path fill="none" stroke="#666666" d="M 1510 185 L 1516.6666666666665 185 Q 1523.3333333333333 185 1530 185 L 1530 185 Q 1536.6666666666667 185 1543.3333333333335 185 L 1550 185" stroke-miterlimit="10" stroke-width="2"></path></g></g></g></g><g transform="matrix(1,0,0,1,1695.5,180.5)"><g transform="translate(0,0)"><g transform="translate(-1699,-186) translate(3.5,5.5) matrix(1,0,0,1,0,0)"><g><path fill="none" stroke="#666666" d="M 1700 185 L 1706.6666666666665 185 Q 1713.3333333333333 185 1720 185 L 1720 185 Q 1726.6666666666667 185 1733.3333333333335 185 L 1740 185" stroke-miterlimit="10" stroke-width="2"></path></g></g></g></g><g transform="translate(0,0) matrix(1,0,0,1,790,120)"><g><g transform="translate(0,0) scale(1.5,0.3)"><g><path fill="none" stroke="none" d="M 10 0 L 90 0 Q 100 0 100 10 L 100 90 Q 100 100 90 100 L 10 100 Q 0 100 0 90 L 0 10 Q 0 0 10 0 Z"></path><g transform="scale(0.6666666666666666,3.3333333333333335)"><path fill="#9fc5e8" stroke="rgb(0,0,0)" d="M 10 0 L 140 0 Q 150 0 150 10 L 150 20 Q 150 30 140 30 L 10 30 Q 0 30 0 20 L 0 10 Q 0 0 10 0 Z" stroke-opacity="0" stroke-miterlimit="10" stroke-width="0"></path></g></g></g></g></g><g transform="scale(1,1) matrix(1,0,0,1,793,120) translate(2,8)"><text fill="#000000" stroke="none" font-family="Arial" font-size="12px" font-style="normal" font-weight="normal" text-decoration="none" x="16.5" y="11">Review &amp; Resubmit</text></g><g transform="translate(0,0) matrix(1,0,0,1,790,70)"><g><g transform="translate(0,0) scale(1.5,0.3)"><g><path fill="none" stroke="none" d="M 10 0 L 90 0 Q 100 0 100 10 L 100 90 Q 100 100 90 100 L 10 100 Q 0 100 0 90 L 0 10 Q 0 0 10 0 Z"></path><g transform="scale(0.6666666666666666,3.3333333333333335)"><path fill="#dd7e6b" stroke="rgb(0,0,0)" d="M 10 0 L 140 0 Q 150 0 150 10 L 150 20 Q 150 30 140 30 L 10 30 Q 0 30 0 20 L 0 10 Q 0 0 10 0 Z" stroke-opacity="0" stroke-miterlimit="10" stroke-width="0"></path></g></g></g></g></g><g transform="scale(1,1) matrix(1,0,0,1,793,70) translate(2,8)"><text fill="#000000" stroke="none" font-family="Arial" font-size="12px" font-style="normal" font-weight="normal" text-decoration="none" x="45.5" y="11">Rejected</text></g><g transform="matrix(1,0,0,1,745.5,80.5)"><g transform="translate(0,0)"><g transform="translate(-748,-187) translate(2.5,106.5) matrix(1,0,0,1,0,0)"><g><path fill="none" stroke="#666666" d="M 750 185 L 760 185 Q 770 185 770 175 L 770 95 Q 770 85 780 85 L 790 85" stroke-miterlimit="10" stroke-width="2"></path></g></g></g></g><g transform="matrix(1,0,0,1,745.5,130.5)"><g transform="translate(0,0)"><g transform="translate(-753,-188) translate(7.5,57.5) matrix(1,0,0,1,0,0)"><g><path fill="none" stroke="#666666" d="M 750 185 L 760 185 Q 770 185 770 175 L 770 145 Q 770 135 780 135 L 790 135" stroke-miterlimit="10" stroke-width="2"></path></g></g></g></g><g transform="translate(0,0) matrix(1,0,0,1,980,120)"><g><g transform="translate(0,0) scale(1.5,0.3)"><g><path fill="none" stroke="none" d="M 10 0 L 90 0 Q 100 0 100 10 L 100 90 Q 100 100 90 100 L 10 100 Q 0 100 0 90 L 0 10 Q 0 0 10 0 Z"></path><g transform="scale(0.6666666666666666,3.3333333333333335)"><path fill="#9fc5e8" stroke="rgb(0,0,0)" d="M 10 0 L 140 0 Q 150 0 150 10 L 150 20 Q 150 30 140 30 L 10 30 Q 0 30 0 20 L 0 10 Q 0 0 10 0 Z" stroke-opacity="0" stroke-miterlimit="10" stroke-width="0"></path></g></g></g></g></g><g transform="scale(1,1) matrix(1,0,0,1,983,120) translate(2,8)"><text fill="#000000" stroke="none" font-family="Arial" font-size="12px" font-style="normal" font-weight="normal" text-decoration="none" x="19.5" y="11">Set Board Meeting</text></g><g transform="translate(0,0) matrix(1,0,0,1,1170,120)"><g><g transform="translate(0,0) scale(1.5,0.3)"><g><path fill="none" stroke="none" d="M 10 0 L 90 0 Q 100 0 100 10 L 100 90 Q 100 100 90 100 L 10 100 Q 0 100 0 90 L 0 10 Q 0 0 10 0 Z"></path><g transform="scale(0.6666666666666666,3.3333333333333335)"><path fill="#9fc5e8" stroke="rgb(0,0,0)" d="M 10 0 L 140 0 Q 150 0 150 10 L 150 20 Q 150 30 140 30 L 10 30 Q 0 30 0 20 L 0 10 Q 0 0 10 0 Z" stroke-opacity="0" stroke-miterlimit="10" stroke-width="0"></path></g></g></g></g></g><g transform="scale(1,1) matrix(1,0,0,1,1173,120) translate(2,8)"><text fill="#000000" stroke="none" font-family="Arial" font-size="12px" font-style="normal" font-weight="normal" text-decoration="none" x="21.5" y="11">Board Re-Review</text></g><g transform="matrix(1,0,0,1,935.5,130.5)"><g transform="translate(0,0)"><g transform="translate(-937,-135) translate(1.5,4.5) matrix(1,0,0,1,0,0)"><g><path fill="none" stroke="#666666" d="M 940 135 L 946.6666666666667 135 Q 953.3333333333334 135 960 135 L 960 135 Q 966.6666666666666 135 973.3333333333333 135 L 980 135" stroke-miterlimit="10" stroke-width="2"></path></g></g></g></g><g transform="matrix(1,0,0,1,1125.5,130.5)"><g transform="translate(0,0)"><g transform="translate(-1129,-135) translate(3.5,4.5) matrix(1,0,0,1,0,0)"><g><path fill="none" stroke="#666666" d="M 1130 135 L 1136.6666666666665 135 Q 1143.3333333333333 135 1150 135 L 1150 135 Q 1156.6666666666667 135 1163.3333333333335 135 L 1170 135" stroke-miterlimit="10" stroke-width="2"></path></g></g></g></g><g transform="translate(0,0) matrix(1,0,0,1,1360,70)"><g><g transform="translate(0,0) scale(1.5,0.3)"><g><path fill="none" stroke="none" d="M 10 0 L 90 0 Q 100 0 100 10 L 100 90 Q 100 100 90 100 L 10 100 Q 0 100 0 90 L 0 10 Q 0 0 10 0 Z"></path><g transform="scale(0.6666666666666666,3.3333333333333335)"><path fill="#dd7e6b" stroke="rgb(0,0,0)" d="M 10 0 L 140 0 Q 150 0 150 10 L 150 20 Q 150 30 140 30 L 10 30 Q 0 30 0 20 L 0 10 Q 0 0 10 0 Z" stroke-opacity="0" stroke-miterlimit="10" stroke-width="0"></path></g></g></g></g></g><g transform="scale(1,1) matrix(1,0,0,1,1363,70) translate(2,8)"><text fill="#000000" stroke="none" font-family="Arial" font-size="12px" font-style="normal" font-weight="normal" text-decoration="none" x="45.5" y="11">Rejected</text></g><g transform="matrix(1,0,0,1,1315.5,80.5)"><g transform="translate(0,0)"><g transform="translate(-1321,-138) translate(5.5,57.5) matrix(1,0,0,1,0,0)"><g><path fill="none" stroke="#666666" d="M 1320 135 L 1330 135 Q 1340 135 1340 125 L 1340 95 Q 1340 85 1350 85 L 1360 85" stroke-miterlimit="10" stroke-width="2"></path></g></g></g></g><g transform="matrix(1,0,0,1,1315.5,130.5)"><g transform="translate(0,0)"><g transform="translate(-1323,-137) translate(7.5,6.5) matrix(1,0,0,1,0,0)"><g><path fill="none" stroke="#666666" d="M 1320 135 L 1330 135 Q 1340 135 1340 145 L 1340 175 Q 1340 185 1350 185 L 1360 185" stroke-miterlimit="10" stroke-width="2"></path></g></g></g></g></g></svg>